<svg xmlns="http://www.w3.org/2000/svg"
  viewBox="-50.52 -630.59 2443.8 736.77" role="img" aria-label="married">
  <path fill="#f4d84f" d="M453.1-291L452.1-291L453.1-291M33.2-254.9L29.3-308.6Q30.3-344.7 51.8-345.7Q130.9-345.7 141.6-263.7Q143.6-247.1 143.6-225.6Q143.6-210 142.6-190.4Q162.1-230.5 183.6-283.7Q205.1-336.9 243.2-337.9Q254.9-337.9 267.6-333Q312.5-284.2 314.5-186.5Q331.1-221.7 355-285.6Q378.9-349.6 415-355.5Q418.9-356.4 423.8-356.4Q437.5-356.4 453.1-350.6Q480.5-319.3 487.3-228.5Q500-62.5 515.6-60.5Q520.5-60.5 536.1-102.5Q551.8-144.5 556.6-173.8L595.7-166Q568.4-14.6 525.4 4.9Q516.6 8.8 506.8 8.8Q424.8 8.8 399.4-125Q394.5-153.3 389.6-191.4Q378.9-169.9 356.4-125Q334-80.1 317.9-55.7Q301.8-31.2 265.6-30.3Q206.1-31.2 206.1-172.9Q198.2-154.3 178.7-104Q159.2-53.7 149.4-33.2Q125 8.8 85 9.8Q20.5 6.8 21.5-112.3Q21.5-126 27.3-179.2Q33.2-232.4 33.2-254.9M268.6-283.2L267.6-283.2"/>
  <path fill="#f4d84f" d="M766.6-220.7Q696.3-218.7 656.3-171.9Q630.9-141.6 630.9-105.5Q630.9-90.8 634.8-76.2Q697.3-80.1 766.6-220.7M622.1-16.6Q545.9-16.6 543-111.3Q547.9-224.6 646.5-279.3Q701.2-310.5 769.5-313.5Q838.9-310.5 852.5-281.2L853.5-281.2L840.8-269.5Q859.4-260.7 882.8-241.2Q883.8-233.4 884.8-221.7Q884.8-195.3 878.9-156.2Q873-105.5 873-80.1Q873-77.1 873-74.2Q910.2-93.7 930.7-150.4Q934.6-163.1 936.5-173.8L975.6-166Q961.9-88.9 926.8-31.2Q902.3 6.8 880.9 6.8Q752 6.8 744.1-74.2Q744.1-79.1 743.2-84Q689.5-16.6 624-16.6Q623-16.6 622.1-16.6"/>
  <path fill="#f4d84f" d="M1187.5-173.8L1226.6-166Q1191.4 31.3 1145.5 34.2Q1043 34.2 1019.5-28.3Q1010.7-53.7 1008.3-140.6Q1005.9-227.5 982.4-276.4Q982.4-276.4 982.4-240.2Q982.4-206.1 975.6-166L936.5-173.8Q939.5-193.4 939.5-214.8Q939.5-298.8 903.3-358.4L905.3-358.4L975.6-400.4Q1092.8-363.3 1121.1-228.5Q1127.9-193.4 1132.8-143.6Q1137.7-93.7 1151.4-63.5Q1175.8-110.4 1187.5-173.8"/>
  <path fill="#f4d84f" d="M1438.5-173.8L1477.5-166Q1442.4 31.3 1396.5 34.2Q1293.9 34.2 1270.5-28.3Q1261.7-53.7 1259.3-140.6Q1256.8-227.5 1233.4-276.4Q1233.4-276.4 1233.4-240.2Q1233.4-206.1 1226.6-166L1187.5-173.8Q1190.4-193.4 1190.4-214.8Q1190.4-298.8 1154.3-358.4L1156.3-358.4L1226.6-400.4Q1343.8-363.3 1372.1-228.5Q1378.9-193.4 1383.8-143.6Q1388.7-93.7 1402.3-63.5Q1426.8-110.4 1438.5-173.8"/>
  <path fill="#f4d84f" d="M1482.4-492.2L1488.3-490.2L1490.2-491.2L1538.1-558.6Q1568.4-551.8 1585-504.9Q1591.8-482.4 1591.8-462.9Q1591.8-401.4 1536.1-400.4Q1485.4-400.4 1482.4-492.2M1563.5 10.7Q1435.5 10.7 1435.5-132.8Q1435.5-212.9 1460-271.5L1474.6-294.9Q1487.3-321.3 1509.8-321.3Q1536.1-321.3 1575.2-287.1Q1576.2-278.3 1576.2-266.6Q1576.2-263.7 1576.2-259.8Q1576.2-225.6 1567.4-175.8Q1555.7-107.4 1554.7-74.2Q1554.7-71.3 1554.7-69.3Q1613.3-94.7 1627.9-173.8L1667-166Q1657.2-85.9 1616.2-27.3Q1589.8 9.8 1563.5 10.7"/>
  <path fill="#f4d84f" d="M1866.2-173.8L1905.3-166Q1892.6-91.8 1836.4-38.1Q1780.3 15.6 1725.6 15.6Q1669.9 15.6 1636.7-41Q1617.2-77.1 1616.2-119.1Q1616.2-234.4 1665-300.8Q1701.2-348.6 1752.9-349.6Q1822.3-349.6 1822.3-303.7Q1822.3-240.2 1763.7-168.9Q1738.3-138.7 1711.9-121.1Q1719.7-57.6 1757.8-36.1Q1808.6-44.9 1842.8-106.4Q1859.4-138.7 1866.2-173.8M1754.9-271.5Q1723.6-229.5 1712.9-170.9Q1755.9-208 1756.8-258.8Q1756.8-265.6 1754.9-271.5"/>
  <path fill="#f4d84f" d="M2216.8 12.7Q2121.1 12.7 2121.1-154.3Q2121.1-165 2121.1-176.8Q2079.1-116.2 2035.6-71.8Q1992.2-27.3 1959-18.6Q1945.3-15.6 1931.6-16.6Q1855.5-16.6 1852.5-111.3Q1857.4-224.6 1956.1-279.3Q2010.7-310.5 2079.1-313.5Q2114.3-312.5 2132.8-304.7Q2156.3-452.1 2156.7-457.5Q2157.2-462.9 2161.1-463.9Q2230.5-473.6 2251-474.6Q2273.4-470.7 2272.9-464.4Q2272.5-458 2270.5-453.1Q2212.9-262.7 2212.9-112.3Q2212.9-44.9 2230.5-41Q2265.6-80.1 2282.2-173.8L2321.3-166Q2305.7-77.1 2294.9-50.8Q2267.6 11.7 2216.8 12.7M2092.8-220.7L2081.1-220.7Q2009.8-220.7 1967.8-174.8Q1940.4-143.6 1940.4-105.5Q1940.4-90.8 1944.3-76.2Q2012.7-89.8 2066.4-176.8Q2078.1-194.3 2092.8-220.7"/>
</svg>
