<svg xmlns="http://www.w3.org/2000/svg"
  viewBox="-110.19 -838.05 4628.08 1307.98" role="img" aria-label="We're getting">
  <path fill="#f4d84f" d="M465 13Q465 26 468.5 37.5Q472 49 475.5 60Q479 71 480.5 81.5Q482 92 479 103Q474 118 464 122.5Q454 127 443 125.5Q432 124 421 118Q410 112 403 106Q371 79 356 37Q341-5 335-56Q329-107 329.5-163.5Q330-220 330-276Q330-289 324.5-286.5Q319-284 310.5-271.5Q302-259 291-238.5Q280-218 268.5-196Q257-174 245.5-152Q234-130 225-115Q217-101 204.5-84Q192-67 190-55Q188-38 196-21.5Q204-5 202 10Q201 17 196.5 25Q192 33 186 40Q180 47 173 52Q166 57 160 57Q139 60 123.5 45.5Q108 31 100 10Q82-35 62-102.5Q42-170 29-247.5Q16-325 13-406.5Q10-488 27-560Q32-581 38-602Q44-623 52-642Q60-661 70.5-676Q81-691 94-699Q118-712 130.5-706.5Q143-701 148-683.5Q153-666 153-640Q153-614 153-586Q153-527 154-465Q155-403 158-343Q161-283 166-225.5Q171-168 178-118Q201-149 221-188.5Q241-228 263-269Q273-288 285-311.5Q297-335 308.5-360Q320-385 330.5-409Q341-433 349-452Q363-481 372.5-520.5Q382-560 400-598Q406-611 415-628.5Q424-646 434.5-662.5Q445-679 456.5-691Q468-703 479-704Q495-705 506-696Q517-687 523.5-671Q530-655 531.5-633.5Q533-612 532-589Q528-532 513.5-471.5Q499-411 484.5-347Q470-283 460-216.5Q450-150 455-80Q473-111 490-139.5Q507-168 524.5-198Q542-228 559.5-261Q577-294 595-333Q614-373 633.5-416.5Q653-460 667.5-506.5Q682-553 687-604.5Q692-656 682-713Q678-718 674.5-717.5Q671-717 667.5-714.5Q664-712 661-710.5Q658-709 655-713Q671-741 687-738Q703-735 716-715Q729-695 737-665.5Q745-636 746-611Q747-564 737-518.5Q727-473 711-429.5Q695-386 675-345Q655-304 634-266Q591-185 547-114.5Q503-44 465 13"/>
  <path fill="#f4d84f" d="M728-106Q725-97 723.5-83.5Q722-70 723-57Q724-44 728.5-33.5Q733-23 742-20Q760-13 776.5-16Q793-19 807-27Q821-35 832.5-44.5Q844-54 853-60Q859-64 871-76.5Q883-89 896-101.5Q909-114 920-122.5Q931-131 934-127Q943-117 936-100Q929-83 916.5-66.5Q904-50 891-36.5Q878-23 875-20Q858-4 838.5 13.5Q819 31 796 43Q773 55 746 59Q719 63 688 51Q673 46 658.5 34.5Q644 23 632 7.5Q620-8 612-27Q604-46 603-67Q601-97 608.5-126Q616-155 629-181.5Q642-208 659-232Q676-256 694-276Q709-292 728.5-308.5Q748-325 769-338Q790-351 811.5-360Q833-369 853-372Q883-376 907-369.5Q931-363 945.5-347Q960-331 963-307.5Q966-284 955-255Q946-232 927-207Q908-182 884-160Q860-138 834-122.5Q808-107 785-104Q769-101 753-103.5Q737-106 728-106M745-164Q805-187 849.5-225Q894-263 917-323Q880-324 854.5-308.5Q829-293 810-269Q791-245 776-217Q761-189 745-164"/>
  <path fill="#f4d84f" d=""/>
  <path fill="#f4d84f" d="M1394-285Q1411-296 1422-312Q1433-328 1448-341Q1453-345 1462.5-352.5Q1472-360 1484-366Q1496-372 1508.5-374.5Q1521-377 1532-372Q1550-364 1555-347.5Q1560-331 1557.5-311.5Q1555-292 1549-271.5Q1543-251 1538-234Q1535-225 1532.5-210.5Q1530-196 1525.5-184Q1521-172 1513.5-164.5Q1506-157 1492-162Q1480-166 1476-180Q1472-194 1471.5-212Q1471-230 1472-249Q1473-268 1472-283Q1456-275 1442.5-264.5Q1429-254 1416-242Q1405-230 1391.5-216Q1378-202 1370-188Q1356-160 1349-121.5Q1342-83 1332-50Q1327-33 1320.5-13Q1314 7 1304.5 24Q1295 41 1281.5 51Q1268 61 1250 58Q1224 54 1218 31Q1212 8 1215-34Q1219-85 1233.5-140Q1248-195 1271-246Q1282-270 1294-294Q1306-318 1319-338Q1332-358 1346.5-373Q1361-388 1378-396Q1401-407 1409-394.5Q1417-382 1416-361Q1415-340 1408-317.5Q1401-295 1394-285"/>
  <path fill="#f4d84f" d="M1654-106Q1651-97 1649.5-83.5Q1648-70 1649-57Q1650-44 1654.5-33.5Q1659-23 1668-20Q1686-13 1702.5-16Q1719-19 1733-27Q1747-35 1758.5-44.5Q1770-54 1779-60Q1785-64 1797-76.5Q1809-89 1822-101.5Q1835-114 1846-122.5Q1857-131 1860-127Q1869-117 1862-100Q1855-83 1842.5-66.5Q1830-50 1817-36.5Q1804-23 1801-20Q1784-4 1764.5 13.5Q1745 31 1722 43Q1699 55 1672 59Q1645 63 1614 51Q1599 46 1584.5 34.5Q1570 23 1558 7.5Q1546-8 1538-27Q1530-46 1529-67Q1527-97 1534.5-126Q1542-155 1555-181.5Q1568-208 1585-232Q1602-256 1620-276Q1635-292 1654.5-308.5Q1674-325 1695-338Q1716-351 1737.5-360Q1759-369 1779-372Q1809-376 1833-369.5Q1857-363 1871.5-347Q1886-331 1889-307.5Q1892-284 1881-255Q1872-232 1853-207Q1834-182 1810-160Q1786-138 1760-122.5Q1734-107 1711-104Q1695-101 1679-103.5Q1663-106 1654-106M1671-164Q1731-187 1775.5-225Q1820-263 1843-323Q1806-324 1780.5-308.5Q1755-293 1736-269Q1717-245 1702-217Q1687-189 1671-164"/>
  <path fill="#f4d84f" d=""/>
  <path fill="#f4d84f" d="M2453-331Q2461-336 2469.5-344.5Q2478-353 2487.5-360Q2497-367 2507.5-370Q2518-373 2529-368Q2532-355 2522-344Q2512-333 2507-320Q2484-261 2474-193Q2464-125 2454-50Q2445 15 2422 82.5Q2399 150 2364.5 208Q2330 266 2287 308.5Q2244 351 2196 366Q2181 371 2166.5 370Q2152 369 2140 364Q2128 359 2120 349.5Q2112 340 2111 327Q2109 302 2119.5 273Q2130 244 2149 213.5Q2168 183 2193 153Q2218 123 2244 97.5Q2270 72 2294.5 52Q2319 32 2337 22Q2340-3 2345.5-24Q2351-45 2353-71Q2344-63 2332-47Q2320-31 2306-13.5Q2292 4 2276.5 20Q2261 36 2244 45Q2227 54 2209 53.5Q2191 53 2172 37Q2151 19 2143-14.5Q2135-48 2135-78Q2136-126 2155-176.5Q2174-227 2205.5-269Q2237-311 2279-339.5Q2321-368 2367-373Q2399-377 2423-367.5Q2447-358 2453-331M2379-181Q2385-192 2389-208Q2393-224 2400-239Q2405-252 2414.5-267Q2424-282 2425-294Q2426-308 2419.5-316Q2413-324 2403-326.5Q2393-329 2381-327Q2369-325 2359-318Q2349-311 2337-298.5Q2325-286 2314-270Q2303-254 2292.5-235Q2282-216 2275-197Q2267-177 2260-155Q2253-133 2248.5-111.5Q2244-90 2243.5-70Q2243-50 2249-34Q2265-49 2283-65.5Q2301-82 2318.5-101Q2336-120 2352-140Q2368-160 2379-181M2147 321Q2183 313 2212 284Q2241 255 2264 216.5Q2287 178 2303.5 135.5Q2320 93 2329 57Q2305 73 2272 106.5Q2239 140 2210.5 178.5Q2182 217 2163 255.5Q2144 294 2147 321"/>
  <path fill="#f4d84f" d="M2631-106Q2628-97 2626.5-83.5Q2625-70 2626-57Q2627-44 2631.5-33.5Q2636-23 2645-20Q2663-13 2679.5-16Q2696-19 2710-27Q2724-35 2735.5-44.5Q2747-54 2756-60Q2762-64 2774-76.5Q2786-89 2799-101.5Q2812-114 2823-122.5Q2834-131 2837-127Q2846-117 2839-100Q2832-83 2819.5-66.5Q2807-50 2794-36.5Q2781-23 2778-20Q2761-4 2741.5 13.5Q2722 31 2699 43Q2676 55 2649 59Q2622 63 2591 51Q2576 46 2561.5 34.5Q2547 23 2535 7.5Q2523-8 2515-27Q2507-46 2506-67Q2504-97 2511.5-126Q2519-155 2532-181.5Q2545-208 2562-232Q2579-256 2597-276Q2612-292 2631.5-308.5Q2651-325 2672-338Q2693-351 2714.5-360Q2736-369 2756-372Q2786-376 2810-369.5Q2834-363 2848.5-347Q2863-331 2866-307.5Q2869-284 2858-255Q2849-232 2830-207Q2811-182 2787-160Q2763-138 2737-122.5Q2711-107 2688-104Q2672-101 2656-103.5Q2640-106 2631-106M2648-164Q2708-187 2752.5-225Q2797-263 2820-323Q2783-324 2757.5-308.5Q2732-293 2713-269Q2694-245 2679-217Q2664-189 2648-164"/>
  <path fill="#f4d84f" d="M3099-435Q3112-432 3129-432.5Q3146-433 3162.5-433Q3179-433 3193.5-431Q3208-429 3218-422Q3219-411 3213.5-406Q3208-401 3199.5-399Q3191-397 3180.5-396.5Q3170-396 3162-396Q3142-394 3121.5-394Q3101-394 3084-393Q3064-347 3040.5-295.5Q3017-244 2998-191Q2979-138 2968.5-85Q2958-32 2963 17Q2972 22 2990.5 8Q3009-6 3030.5-29Q3052-52 3072.5-80Q3093-108 3107-130Q3111-136 3117-147Q3123-158 3129.5-167Q3136-176 3142.5-180.5Q3149-185 3155-178Q3161-173 3160-163.5Q3159-154 3155-143Q3151-132 3144.5-120Q3138-108 3134-99Q3124-82 3112-64Q3100-46 3089-30Q3077-14 3061.5 7.5Q3046 29 3026.5 46.5Q3007 64 2983.5 73.5Q2960 83 2934 75Q2907 67 2890.5 36.5Q2874 6 2870-28Q2865-77 2873-127Q2881-177 2895.5-224Q2910-271 2927.5-313.5Q2945-356 2960-391Q2945-392 2928-394Q2911-396 2896-400.5Q2881-405 2871-414Q2861-423 2860-438Q2859-450 2865.5-458.5Q2872-467 2880-470Q2888-473 2895.5-468.5Q2903-464 2905-449Q2922-444 2941.5-442Q2961-440 2981-438Q2997-457 3013-485.5Q3029-514 3046-542Q3063-570 3082.5-593Q3102-616 3126-625Q3149-633 3154-621.5Q3159-610 3155-590.5Q3151-571 3142.5-551Q3134-531 3131-522Q3120-496 3113.5-477Q3107-458 3099-435"/>
  <path fill="#f4d84f" d="M3398-435Q3411-432 3428-432.5Q3445-433 3461.5-433Q3478-433 3492.5-431Q3507-429 3517-422Q3518-411 3512.5-406Q3507-401 3498.5-399Q3490-397 3479.5-396.5Q3469-396 3461-396Q3441-394 3420.5-394Q3400-394 3383-393Q3363-347 3339.5-295.5Q3316-244 3297-191Q3278-138 3267.5-85Q3257-32 3262 17Q3271 22 3289.5 8Q3308-6 3329.5-29Q3351-52 3371.5-80Q3392-108 3406-130Q3410-136 3416-147Q3422-158 3428.5-167Q3435-176 3441.5-180.5Q3448-185 3454-178Q3460-173 3459-163.5Q3458-154 3454-143Q3450-132 3443.5-120Q3437-108 3433-99Q3423-82 3411-64Q3399-46 3388-30Q3376-14 3360.5 7.5Q3345 29 3325.5 46.5Q3306 64 3282.5 73.5Q3259 83 3233 75Q3206 67 3189.5 36.5Q3173 6 3169-28Q3164-77 3172-127Q3180-177 3194.5-224Q3209-271 3226.5-313.5Q3244-356 3259-391Q3244-392 3227-394Q3210-396 3195-400.5Q3180-405 3170-414Q3160-423 3159-438Q3158-450 3164.5-458.5Q3171-467 3179-470Q3187-473 3194.5-468.5Q3202-464 3204-449Q3221-444 3240.5-442Q3260-440 3280-438Q3296-457 3312-485.5Q3328-514 3345-542Q3362-570 3381.5-593Q3401-616 3425-625Q3448-633 3453-621.5Q3458-610 3454-590.5Q3450-571 3441.5-551Q3433-531 3430-522Q3419-496 3412.5-477Q3406-458 3398-435"/>
  <path fill="#f4d84f" d="M3699-543Q3706-544 3718.5-545.5Q3731-547 3744-547Q3757-547 3767-544.5Q3777-542 3780-535Q3782-527 3777.5-521Q3773-515 3766-511.5Q3759-508 3751.5-505.5Q3744-503 3740-501Q3728-496 3715.5-487.5Q3703-479 3695-474Q3683-468 3663.5-457Q3644-446 3625-439.5Q3606-433 3590.5-434Q3575-435 3572-453Q3570-464 3574.5-475.5Q3579-487 3586-496.5Q3593-506 3601-513.5Q3609-521 3615-524Q3634-535 3655.5-538Q3677-541 3699-543M3596-382Q3623-389 3634-380.5Q3645-372 3645.5-354Q3646-336 3639.5-312.5Q3633-289 3623.5-266.5Q3614-244 3605-225Q3596-206 3593-198Q3575-145 3559.5-96.5Q3544-48 3534-4Q3532 4 3533 13Q3534 22 3533 30.5Q3532 39 3528 45.5Q3524 52 3513 54Q3500 57 3492.5 46Q3485 35 3482 17.5Q3479 0 3478.5-19.5Q3478-39 3479-54Q3480-100 3486.5-152Q3493-204 3505.5-250Q3518-296 3538-331.5Q3558-367 3588-380Q3590-380 3592-381Q3594-382 3596-382"/>
  <path fill="#f4d84f" d="M3759-160Q3796-222 3842-270Q3888-318 3941-368Q3949-376 3958.5-385.5Q3968-395 3978-402.5Q3988-410 3998.5-415Q4009-420 4020-419Q4037-417 4044-401.5Q4051-386 4049-362Q4046-330 4032-299Q4018-268 4006-239Q3981-181 3961.5-123.5Q3942-66 3925 8Q3921 23 3918.5 43.5Q3916 64 3911.5 82Q3907 100 3899.5 112.5Q3892 125 3879 125Q3867 126 3859 119Q3851 112 3846.5 101Q3842 90 3840.5 76.5Q3839 63 3838 51Q3835 8 3838.5-33Q3842-74 3849.5-112.5Q3857-151 3866.5-186Q3876-221 3884-253Q3843-212 3810-160.5Q3777-109 3744-52Q3738-42 3733-30.5Q3728-19 3722.5-9.5Q3717 0 3710 6.5Q3703 13 3694 13Q3671 14 3661-10Q3651-34 3649-68Q3647-102 3650.5-138.5Q3654-175 3658-199Q3663-234 3670.5-271Q3678-308 3690-341Q3702-374 3720.5-399Q3739-424 3766-434Q3789-442 3807.5-429Q3826-416 3828-395Q3830-380 3827.5-364Q3825-348 3819.5-332Q3814-316 3808-300.5Q3802-285 3797-272Q3786-243 3776.5-216Q3767-189 3759-160"/>
  <path fill="#f4d84f" d="M4331-331Q4339-336 4347.5-344.5Q4356-353 4365.5-360Q4375-367 4385.5-370Q4396-373 4407-368Q4410-355 4400-344Q4390-333 4385-320Q4362-261 4352-193Q4342-125 4332-50Q4323 15 4300 82.5Q4277 150 4242.5 208Q4208 266 4165 308.5Q4122 351 4074 366Q4059 371 4044.5 370Q4030 369 4018 364Q4006 359 3998 349.5Q3990 340 3989 327Q3987 302 3997.5 273Q4008 244 4027 213.5Q4046 183 4071 153Q4096 123 4122 97.5Q4148 72 4172.5 52Q4197 32 4215 22Q4218-3 4223.5-24Q4229-45 4231-71Q4222-63 4210-47Q4198-31 4184-13.5Q4170 4 4154.5 20Q4139 36 4122 45Q4105 54 4087 53.5Q4069 53 4050 37Q4029 19 4021-14.5Q4013-48 4013-78Q4014-126 4033-176.5Q4052-227 4083.5-269Q4115-311 4157-339.5Q4199-368 4245-373Q4277-377 4301-367.5Q4325-358 4331-331M4257-181Q4263-192 4267-208Q4271-224 4278-239Q4283-252 4292.5-267Q4302-282 4303-294Q4304-308 4297.5-316Q4291-324 4281-326.5Q4271-329 4259-327Q4247-325 4237-318Q4227-311 4215-298.5Q4203-286 4192-270Q4181-254 4170.5-235Q4160-216 4153-197Q4145-177 4138-155Q4131-133 4126.5-111.5Q4122-90 4121.5-70Q4121-50 4127-34Q4143-49 4161-65.5Q4179-82 4196.5-101Q4214-120 4230-140Q4246-160 4257-181M4025 321Q4061 313 4090 284Q4119 255 4142 216.5Q4165 178 4181.5 135.5Q4198 93 4207 57Q4183 73 4150 106.5Q4117 140 4088.5 178.5Q4060 217 4041 255.5Q4022 294 4025 321"/>
</svg>
