<svg xmlns="http://www.w3.org/2000/svg"
  viewBox="-104.16 -874.19 3259.77 977.14" role="img" aria-label="married">
  <path fill="#f4d84f" d="M576-49L577-47Q576-45 575-44.5Q574-44 573-43Q570-40 568.5-39Q567-38 561-36Q556-35 545.5-34.5Q535-34 524-36Q521-37 518-39Q515-41 512-43Q511-43 508.5-42.5Q506-42 506-43Q506-43 506-44L506-45Q504-46 502.5-45Q501-44 500-45Q500-49 500-49Q499-49 497.5-48.5Q496-48 495-49L495-52Q494-53 491.5-52Q489-51 488-52Q488-56 488-56Q487-56 485-55.5Q483-55 482-56Q477-61 468-67Q459-73 454-79Q454-87 451-94Q448-101 446-109Q444-113 444-116.5Q444-120 442-124Q441-128 439-131.5Q437-135 436-138Q435-143 436-150Q437-157 436-164Q435-176 434.5-183.5Q434-191 436-204Q437-208 436-210.5Q435-213 436-216Q437-218 438-219.5Q439-221 439-223Q441-234 440.5-244Q440-254 442-263Q443-263 444-264Q444-264 446-266L451-289Q451-290 450.5-292.5Q450-295 451-296Q454-299 454.5-303.5Q455-308 457-315Q458-316 459-316Q460-316 461-318Q461-320 463-322.5Q465-325 464-329Q463-332 460.5-330Q458-328 457-325Q452-323 450.5-318Q449-313 446-308Q443-305 439-302Q435-299 433-296Q431-294 429.5-292.5Q428-291 427-289Q426-287 426-284.5Q426-282 424-280Q422-276 418.5-273Q415-270 413-266Q411-264 411-261.5Q411-259 409-257Q408-255 406-253.5Q404-252 403-250Q402-248 402.5-245Q403-242 401-239Q400-237 398-236Q396-235 394-233L376-201Q375-199 375-196Q375-193 373-191Q372-189 370-188Q368-187 367-185Q365-183 365-180Q365-177 363-174Q362-172 360-170.5Q358-169 357-167Q355-164 355.5-162Q356-160 354-158Q354-156 351.5-154.5Q349-153 348-151Q347-148 347-145.5Q347-143 345-141Q345-139 344-139.5Q343-140 342-138Q341-131 336-124Q332-121 327-109Q325-104 321-97.5Q317-91 312-86Q309-82 307-79Q305-76 300-72Q283-70 271-78Q259-86 248-92Q229-105 218-131Q218-132 218.5-134.5Q219-137 218-138Q215-140 215.5-143Q216-146 215-151Q214-155 213-156.5Q212-158 212-161Q211-163 213.5-165Q216-167 215-171Q214-171 213-172Q212-172 212-174Q212-176 211.5-179.5Q211-183 212-185Q212-185 213-186Q214-186 215-187Q215-190 213.5-191.5Q212-193 212-194Q212-200 213-204.5Q214-209 215-213L218-250Q217-254 215.5-251.5Q214-249 212-250Q211-245 208-242Q205-239 203-236Q201-233 200-230Q199-227 197-223Q195-221 193-219.5Q191-218 190-216Q190-215 190.5-213Q191-211 190-211L187-211Q185-203 182-197Q181-195 178.5-193.5Q176-192 175-191Q175-189 175.5-187Q176-185 175-185Q175-185 173-185L172-185Q171-183 172-181Q173-179 172-178Q168-174 167-171.5Q166-169 163-164Q162-163 161.5-163Q161-163 160-161Q160-157 157-155Q154-153 154-148L154-144Q153-142 151.5-140.5Q150-139 149-138Q148-137 149-134.5Q150-132 149-131Q145-131 145-131Q145-130 145.5-127.5Q146-125 145-124L143-124L142-124L142-121L142-118Q140-116 135.5-105.5Q131-95 127-89Q120-75 113-62.5Q106-50 96-39Q82-39 72-41.5Q62-44 51-49Q50-50 50.5-51Q51-52 48-52L44-54Q40-56 40-56Q38-57 38-59.5Q38-62 36-63Q32-65 28-66Q24-67 20-69Q19-70 18-72Q17-74 15-75Q10-80 1-84.5Q-8-89-16-95Q-14-100-15.5-105Q-17-110-19-115L-22-131Q-26-151-26.5-165.5Q-27-180-22-204Q-20-212-17.5-221Q-15-230-13-239L-6-257L-4-276Q-4-278-1-280Q2-282 2-283Q4-289 3.5-292Q3-295 5-302Q6-303 7-303Q8-303 9-306Q9-308 13-316Q17-324 18-329Q19-334 21.5-342Q24-350 27-358Q27-359 28-359Q29-359 30-361Q32-369 34.5-372Q37-375 40-381Q40-382 39.5-384.5Q39-387 40-388Q41-389 44.5-393.5Q48-398 48-401Q48-404 51.5-408Q55-412 58-417Q59-419 61-421.5Q63-424 63-426Q63-427 65.5-429.5Q68-432 69-433Q71-437 78-444Q92-456 106.5-452Q121-448 139-437Q140-436 140.5-433Q141-430 142-430Q148-427 154.5-425.5Q161-424 166-417Q168-415 168.5-411.5Q169-408 172-407Q171-393 170-381Q169-369 166-355L164-355Q163-355 163-352Q162-349 162.5-345Q163-341 163-338Q162-334 160-331.5Q158-329 157-325Q156-323 157.5-316.5Q159-310 157-308Q154-306 151.5-295.5Q149-285 149-276Q148-274 146.5-273Q145-272 145-269Q153-278 160-286Q167-294 175-302Q183-310 189-319Q195-328 206-331Q212-347 226-348Q240-349 254-342Q256-341 255.5-339.5Q255-338 258-338Q259-338 261.5-335.5Q264-333 266-331Q269-330 275.5-326Q282-322 284-318Q290-297 293.5-266.5Q297-236 291-211Q292-207 294-209Q296-211 297-213Q304-221 307-230.5Q310-240 315-250Q320-259 324-268Q328-277 332-286Q335-291 337-296Q339-301 342-306Q343-307 345-308Q347-309 348-311Q350-313 350-316Q350-319 352-322L357-329Q359-330 358.5-333Q358-336 360-338Q362-342 366.5-345Q371-348 373-352Q374-353 373-355Q372-357 373-358Q374-359 376-359.5Q378-360 378-361Q380-364 380-366.5Q380-369 382-372Q384-376 387.5-378Q391-380 394-385Q400-392 405-399Q410-406 415-414Q416-415 418.5-415.5Q421-416 421-417Q422-418 421-420.5Q420-423 421-424Q423-426 425.5-425.5Q428-425 430-426Q432-428 431.5-431.5Q431-435 433-437Q435-439 437.5-438.5Q440-438 442-440Q448-447 453.5-454.5Q459-462 470-463Q473-472 478.5-474.5Q484-477 492-482L500-486Q505-489 522-486Q532-483 542.5-477.5Q553-472 564-463L582-451Q586-447 588.5-444.5Q591-442 593-437Q594-436 594.5-431.5Q595-427 596-426Q599-424 598.5-421Q598-418 600-407Q601-396 602-388.5Q603-381 600-365Q599-363 598-361.5Q597-360 596-358Q595-349 595-339.5Q595-330 593-322Q593-321 592-320.5Q591-320 591-318Q591-315 591.5-311.5Q592-308 591-306Q591-305 590-304.5Q589-304 589-302Q589-300 589.5-292Q590-284 589-283L586-283Q585-282 586-279.5Q587-277 586-276Q582-273 581.5-260.5Q581-248 579-239L577-239Q576-239 576-236Q576-234 576.5-230Q577-226 576-223Q576-222 574.5-222Q573-222 573-220Q573-216 573.5-213Q574-210 573-208Q573-207 571.5-206.5Q570-206 570-204L570-194Q568-192 568-190Q568-188 567-185Q567-184 567.5-181Q568-178 567-178Q567-178 565-178L564-178Q562-168 561-154Q560-140 555-131Q556-131 555.5-126.5Q555-122 555-117L573-134L578-140Q583-145 585-150Q587-152 591-156.5Q595-161 595-164Q595-167 599-169Q603-171 606-174Q607-176 606.5-178Q606-180 607-182L612-184Q614-186 615-189.5Q616-193 618-196Q620-198 622.5-199.5Q625-201 627-203Q629-205 628.5-207.5Q628-210 630-212L635-214Q637-216 636.5-218Q636-220 637-222Q639-225 643-228Q647-231 650-236Q653-239 655.5-243Q658-247 662-252Q663-253 663.5-252.5Q664-252 664-254Q665-258 667.5-257.5Q670-257 672-259Q672-260 671.5-262Q671-264 672-265Q672-265 674-265Q676-266 678.5-268.5Q681-271 685-270Q687-267 689.5-263.5Q692-260 699-261Q700-257 698-254Q696-251 694-247Q693-245 691-244Q689-243 689-241Q688-239 688-237Q688-235 686-233Q685-231 684-230Q683-229 682-227L674-214L672-206Q671-204 669-203Q667-202 666-200Q666-200 664-193Q663-191 659-187Q658-185 658.5-183.5Q659-182 657-180Q656-178 654.5-177Q653-176 652-174Q650-170 649-164.5Q648-159 646-153L637-140Q636-137 636.5-135Q637-133 635-131L630-126L627-118Q627-116 625.5-115Q624-114 623-113Q621-111 619.5-108Q618-105 618-102L607-89Q603-83 599.5-77.5Q596-72 589-65Q587-63 586-59Q585-55 581-57Q581-54 579.5-52.5Q578-51 576-49M424-403Q419-399 415-394Q414-393 415-391Q416-389 415-388Q414-385 409.5-383Q405-381 403-379L403-375Q403-372 402.5-373Q402-374 401-372Q399-370 399.5-366.5Q400-363 398-361Q396-359 393-358Q390-357 388-355Q386-352 386.5-348.5Q387-345 385-342Q384-340 382-338.5Q380-337 378-335Q378-333 375.5-330Q373-327 373-325Q373-323 371.5-323Q370-323 370-322Q367-314 364.5-308.5Q362-303 360-300Q358-297 358-295Q358-293 357-289Q355-281 351.5-271Q348-261 348-253Q351-249 352-243.5Q353-238 360-239Q357-250 358-257Q359-264 360-276Q364-274 365-275.5Q366-277 366-279.5Q366-282 366.5-284Q367-286 370-286Q372-281 373-286Q374-291 370-293Q371-292 368-290.5Q365-289 367-293Q368-296 372.5-294.5Q377-293 376-293Q377-296 376-297Q375-298 374-298.5Q373-299 373-300.5Q373-302 376-306Q375-301 377.5-299.5Q380-298 382-302Q380-304 381.5-306.5Q383-309 386-312Q389-315 391.5-318.5Q394-322 394-325Q392-327 389.5-328Q387-329 385-331Q389-331 388-335Q393-334 392.5-329Q392-324 398-325Q398-334 403-337.5Q408-341 406-352Q412-350 410.5-353.5Q409-357 409-358Q411-360 414.5-361Q418-362 418-365Q418-369 421-370.5Q424-372 424-375Q421-375 418.5-372.5Q416-370 414.5-368Q413-366 412-366Q411-366 409-372Q414-367 415.5-371.5Q417-376 421-381L418-381Q416-383 420-385Q424-387 424-388Q425-388 424-390.5Q423-393 424-394L430-397Q432-399 431.5-401.5Q431-404 433-407Q435-409 439.5-411Q444-413 439-417Q435-412 432-410Q429-408 424-403M51-315Q51-323 55-325.5Q59-328 58-335Q64-337 66-344.5Q68-352 72-358L78-361L80-367Q81-370 81-372Q81-373 82-374Q83-374 84-375Q85-378 83-379Q81-380 84-381Q87-382 88.5-384.5Q90-387 88-388Q87-384 81-388Q84-383 79-380.5Q74-378 72-375Q70-373 70-370Q70-367 69-365Q67-360 65-356.5Q63-353 61-348Q60-346 58-345Q56-344 55-342Q53-339 53-336Q53-333 51-331Q48-326 47.5-324Q47-322 45-315Q45-314 43-311.5Q41-309 45-308Q45-316 51-315M398-352Q404-350 399-345.5Q394-341 398-335Q388-338 393-341Q398-344 398-352"/>
  <path fill="#f4d84f" d="M1040-30Q1044-27 1044-24Q1044-21 1042.5-20Q1041-19 1039.5-21Q1038-23 1040-30M993-50Q995-45 993.5-43.5Q992-42 991-39Q995-40 995.5-42Q996-44 995-46.5Q994-49 993.5-51.5Q993-54 995-56Q998-54 999-49.5Q1000-45 1002-42Q998-40 998.5-35.5Q999-31 992-33Q992-28 994.5-27Q997-26 999-24Q999-22 1000-21L1002-19Q1003-18 1005.5-20Q1008-22 1008-19Q1007-18 1005.5-18Q1004-18 1005-16Q1005-15 1006-15Q1008-13 1008-13Q1008-11 1006.5-9Q1005-7 1008-7Q1005 1 996-3Q987-7 982-13Q980-12 978.5-10Q977-8 975-10Q974-10 973-14Q972-18 971-19Q968-20 968-18L968-16Q964-15 963.5-19.5Q963-24 955-21Q956-25 954-27.5Q952-30 952-27Q947-27 950.5-30.5Q954-34 950-39Q948-37 947-34Q946-31 947-27Q945-25 943.5-27Q942-29 940.5-32Q939-35 938-37.5Q937-40 936-39Q935-36 930-42Q929-43 927-44Q925-45 924-47Q922-49 924-49Q926-49 926-50Q926-52 921-58.5Q916-65 922-70Q920-75 919-71.5Q918-68 914-73Q912-80 916-81Q915-84 913.5-82.5Q912-81 913-81Q910-83 911-83.5Q912-84 911-92Q910-93 909-93Q907-93 908-94Q911-97 910-100Q908-108 904.5-112Q901-116 900-123Q905-123 907.5-121Q910-119 914-123Q913-125 912.5-130Q912-135 911.5-139Q911-143 910.5-143.5Q910-144 909-138Q906-139 907-141.5Q908-144 909.5-147Q911-150 911-152.5Q911-155 907-158Q904-157 904.5-153Q905-149 903-146Q902-144 899.5-143.5Q897-143 895-141Q893-139 892.5-136.5Q892-134 890-132Q889-132 887-132.5Q885-133 884-132Q881-129 879-126Q878-124 878-123Q878-122 877.5-122Q877-122 877-121L877-120Q876-120 874-120.5Q872-121 871-120Q870-120 870-118Q870-116 869-115Q868-115 866-115.5Q864-116 863-115Q859-113 859-110.5Q859-108 853-106Q851-106 851.5-105Q852-104 850-103Q848-102 845.5-100.5Q843-99 839-97Q837-97 835.5-97.5Q834-98 833-97Q832-97 831-95Q830-93 830-92Q826-91 820.5-92Q815-93 812-92Q810-92 805-89.5Q800-87 798-90Q795-92 795.5-90.5Q796-89 792-90Q791-90 791-91Q790-91 790-91.5Q790-92 789-92Q783-93 779.5-94Q776-95 771-97L753-106Q751-108 748.5-108Q746-108 744-109Q742-111 738-114.5Q734-118 732-120Q728-123 724.5-125Q721-127 717-129Q713-132 711.5-135Q710-138 705-138Q701-146 696.5-152Q692-158 685-161Q683-169 677-177.5Q671-186 669-194Q668-198 668-202Q668-206 671-206Q672-209 668.5-208.5Q665-208 665-209Q665-210 667-214Q669-218 666-220Q663-224 664.5-224.5Q666-225 666-229Q665-232 662.5-236.5Q660-241 661-249Q663-248 665-246Q667-244 670-243Q671-247 667.5-249Q664-251 666-254Q666-256 671-256Q676-256 674-260Q666-255 667.5-259Q669-263 664-268Q666-273 665.5-280Q665-287 671-288Q670-301 672-309Q672-310 673-311Q674-312 674-311Q675-314 673.5-317.5Q672-321 673-323Q674-325 675-324.5Q676-324 676-326Q676-330 679-331Q682-332 684-334Q686-337 685-340Q684-343 686-345Q687-347 691.5-349.5Q696-352 695-356Q695-361 703-366.5Q711-372 711-380Q719-382 724-390.5Q729-399 736-405Q738-407 741-408Q744-409 746-411Q748-413 748.5-416Q749-419 751-420Q754-422 757-421.5Q760-421 762-423Q763-424 763-426.5Q763-429 764-429Q769-430 771.5-430.5Q774-431 779-433Q782-435 783-436Q784-437 789-439Q791-440 793-440.5Q795-441 798-442Q800-443 802.5-444.5Q805-446 808-448Q809-449 811.5-448Q814-447 814-448Q816-451 830.5-451.5Q845-452 854-451Q862-449 871.5-446Q881-443 889-439Q891-438 893.5-438Q896-438 898-436Q900-435 901.5-433Q903-431 904-430Q906-429 908.5-429.5Q911-430 913-429Q915-428 914.5-427Q914-426 917-426Q920-426 924.5-421.5Q929-417 934-411.5Q939-406 943.5-401Q948-396 953-394Q959-396 961-401Q963-406 966-411Q969-416 972.5-418.5Q976-421 978-426Q979-427 978-428.5Q977-430 978-430Q982-434 985.5-439.5Q989-445 994-451Q995-452 996-451.5Q997-451 996-453Q996-454 998-457.5Q1000-461 1002.5-465Q1005-469 1008-472Q1011-475 1013-476Q1014-477 1016-476.5Q1018-476 1019-476Q1021-478 1025-482Q1029-486 1035-479Q1036-478 1038-479Q1040-480 1041-479Q1043-477 1043-475Q1043-473 1045-471Q1047-469 1052-468Q1057-467 1060-462Q1062-460 1062.5-456.5Q1063-453 1065-451Q1067-446 1068.5-445Q1070-444 1071-436Q1071-435 1071-433Q1071-431 1072-430Q1075-429 1073.5-424.5Q1072-420 1071-414Q1071-412 1071.5-411Q1072-410 1071-408Q1071-404 1070-400Q1070-399 1068-391Q1068-390 1066-382Q1066-380 1064.5-377.5Q1063-375 1061-371Q1060-368 1060.5-366Q1061-364 1059-362Q1057-358 1056.5-357Q1056-356 1055-351Q1054-347 1051-339.5Q1048-332 1046-326Q1044-318 1042-311.5Q1040-305 1038-297Q1036-294 1035-292Q1034-290 1033-285Q1033-284 1033.5-283Q1034-282 1034-280Q1033-278 1031-277Q1029-276 1028-274Q1028-273 1029-271Q1030-269 1029-268Q1026-266 1024-260Q1023-259 1024-257Q1025-255 1024-254L1023-254L1022-254Q1021-251 1021.5-246Q1022-241 1021-237L1020-237Q1017-237 1019-235Q1019-231 1013-229Q1014-218 1011-211Q1008-204 1003-197Q1003-193 1003.5-190Q1004-187 1004-183Q1001-183 1000.5-181.5Q1000-180 999.5-178Q999-176 998-174.5Q997-173 994-174Q994-172 994.5-166Q995-160 993-158L990-158L987-158Q986-153 988-149Q990-145 989-138L980-138Q982-136 983.5-135.5Q985-135 987-132Q988-130 987-126Q986-122 988-120Q990-118 989.5-118Q989-118 989-115Q990-110 987-107.5Q984-105 981-103Q981-101 981.5-97.5Q982-94 982-92Q982-91 981-90L980-90Q979-88 981-87Q983-86 983-87Q983-85 982-83.5Q981-82 981-81Q979-79 979.5-76.5Q980-74 979-68Q979-64 978-56Q977-48 985-45Q987-45 987.5-47.5Q988-50 993-50M922-94Q919-94 919.5-95.5Q920-97 921-98.5Q922-100 922-101.5Q922-103 919-103Q919-98 917-97Q917-99 915.5-99.5Q914-100 914-97Q916-97 916.5-95Q917-93 914-92Q914-93 913-93.5Q912-94 911-92Q918-88 922-94M1028-436Q1029-440 1033.5-444.5Q1038-449 1033-451Q1033-447 1027-443.5Q1021-440 1028-436M1043-408Q1043-413 1047-418.5Q1051-424 1046-426Q1046-422 1041.5-417Q1037-412 1043-408M815-417Q826-417 829-423Q823-424 818.5-423Q814-422 815-417M804-417Q796-415 790.5-411Q785-407 782-405Q783-406 781.5-407Q780-408 779-408L778-407Q777-407 777-406.5Q777-406 776-406Q774-405 773-405Q771-405 769-402Q767-399 765-397L759-394Q758-393 755.5-393Q753-393 751-391Q752-389 752-388L752-385Q751-384 749-385Q747-386 746-385Q745-384 745-382.5Q745-381 744-380Q744-379 742-379.5Q740-380 739-380Q737-378 737.5-375.5Q738-373 737-371Q735-369 733-368Q731-367 729-365Q729-364 730-362Q731-360 730-359Q729-358 727-359Q725-360 724-359Q723-358 724-357Q725-356 725-354Q724-352 721.5-351.5Q719-351 719-348Q720-343 716-338.5Q712-334 716-326Q714-326 712-325.5Q710-325 713-323Q715-323 716-324.5Q717-326 719-326Q722-334 726.5-340.5Q731-347 736-354Q738-357 740.5-359Q743-361 745-365Q748-368 750-372.5Q752-377 756-380Q758-381 759.5-381Q761-381 763-382Q765-384 766-385Q767-386 769-388Q773-391 775-391.5Q777-392 780-394Q781-395 781-397.5Q781-400 783-400Q785-402 790-403Q795-404 799-405Q800-406 801.5-408Q803-410 804-411Q806-413 809-413Q812-413 812-417Q808-418 807-419Q806-420 804-417M1027-394Q1027-392 1031-388Q1031-387 1030-386Q1029-385 1028-385Q1028-386 1026.5-388Q1025-390 1025-388Q1023-386 1023-383.5Q1023-381 1022-380Q1022-374 1021-371Q1020-369 1018-370Q1016-371 1016-368Q1016-366 1015-366.5Q1014-367 1013-365Q1011-360 1012-355Q1013-350 1018-351Q1017-356 1019-360Q1021-364 1023.5-368Q1026-372 1027-375Q1028-378 1025-382Q1030-381 1031.5-382.5Q1033-384 1032.5-386.5Q1032-389 1031-391Q1030-393 1030-394Q1030-395 1032.5-394.5Q1035-394 1036-394Q1037-395 1035.5-397Q1034-399 1035-400Q1037-402 1040-401.5Q1043-401 1041-405Q1037-405 1035.5-403.5Q1034-402 1033.5-400Q1033-398 1031.5-396Q1030-394 1027-394M1002-337Q1002-336 1000-337Q998-338 997-337Q996-335 996.5-331.5Q997-328 996-326Q993-326 993-323Q991-319 988.5-313.5Q986-308 986-306Q986-304 985-304.5Q984-305 983-303Q981-299 980.5-294Q980-289 979-285Q977-281 976.5-277Q976-273 975-271Q973-268 971.5-262Q970-256 974-254Q974-262 978-264.5Q982-267 980-277Q983-278 984-280Q985-282 988-283Q986-291 988.5-293Q991-295 993-297Q994-298 992.5-300Q991-302 992-303Q994-306 996.5-307.5Q999-309 999-311Q998-311 997-312Q996-313 997-314L999-314L1002-314Q1003-317 1001-319Q999-321 999-323Q1005-324 1005-325.5Q1005-327 1003-329Q1003-329 1005-333Q1006-335 1008-337Q1010-340 1010.5-340.5Q1011-341 1012-345Q1013-347 1012-349.5Q1011-352 1011-354Q1004-355 1004-347.5Q1004-340 1002-337M807-382L804-382Q802-382 802.5-380.5Q803-379 805-380Q808-381 808.5-385.5Q809-390 807-385L807-382M790-374Q786-375 785-372.5Q784-370 788-368Q791-372 793.5-375Q796-378 798-382Q788-384 790-374M769-362Q774-362 776-364.5Q778-367 783-368Q783-370 782-372.5Q781-375 780-371Q779-366 773-367.5Q767-369 769-362M759-354Q759-355 760.5-356Q762-357 763-358Q764-359 764-360Q764-361 760-362Q762-359 757-357.5Q752-356 759-354M732-291Q731-294 731-297Q731-300 730-303Q734-306 735-310.5Q736-315 740-317Q740-325 737.5-326.5Q735-328 738-332Q739-337 745-341.5Q751-346 744-351Q736-340 727-327.5Q718-315 716-297Q718-295 723.5-289Q729-283 732-288Q730-288 729.5-289.5Q729-291 732-291M775-194Q775-191 770-191L770-183Q771-181 769.5-181Q768-181 768-180Q767-177 768.5-173Q770-169 769-166Q769-162 769-162.5Q769-163 770-158Q771-156 769-155Q767-154 771-152Q775-157 780-156.5Q785-156 790-158Q792-160 794-163Q796-166 798-168Q803-173 807.5-175.5Q812-178 817-180Q815-185 816-185.5Q817-186 818.5-185Q820-184 821-183.5Q822-183 822-186Q818-187 818.5-187.5Q819-188 821-188.5Q823-189 826-189Q829-189 831-189Q829-194 831-196.5Q833-199 836-203Q838-206 841.5-209Q845-212 847-214Q849-217 848-220.5Q847-224 849-226Q851-229 854-231Q857-233 859-235Q860-237 859.5-239Q859-241 861-243Q863-245 866-244.5Q869-244 869-249Q869-253 873-254.5Q877-256 877-260Q877-264 881-268Q885-272 886-274Q889-280 892.5-284.5Q896-289 899-294L900-294L902-294Q903-295 902-297Q901-299 901-300Q903-302 905-303Q907-304 909-306Q910-307 909-308.5Q908-310 908-311Q909-313 910.5-314Q912-315 914-317Q918-324 921.5-329.5Q925-335 927-342Q920-344 913.5-341.5Q907-339 900-337Q892-335 890.5-335.5Q889-336 886-332Q885-331 883-332Q881-333 880-332L880-331L880-329Q880-328 878-329Q876-330 875-329L875-328Q875-327 876-326Q875-325 871.5-324.5Q868-324 867-323Q865-321 864.5-320Q864-319 862-317Q861-316 859-317Q857-318 856-317Q856-317 856-314Q855-313 853.5-314Q852-315 851-314Q849-312 846-309Q843-306 840-303Q838-301 836-298.5Q834-296 832-294Q831-293 830-292Q829-291 829-288Q829-283 824.5-283.5Q820-284 821-280Q821-274 815-272Q809-270 805-268Q808-251 792-252Q794-245 792.5-241Q791-237 791-232Q786-232 784-228.5Q782-225 781-220.5Q780-216 779-212Q778-208 774-206Q773-210 773-213Q773-216 770-217Q769-209 772.5-206Q776-203 775-194M748-340Q747-340 746-336.5Q745-333 744-332Q751-331 751-336Q751-341 748-340M737-235Q737-240 734.5-244.5Q732-249 730-254Q728-259 728.5-265Q729-271 724-274Q724-265 726-252.5Q728-240 737-235M758-252L763-252Q763-254 762.5-254.5Q762-255 762-257L757-257Q757-255 757.5-254.5Q758-254 758-252M717-237Q719-230 716-228.5Q713-227 718-223Q720-221 720.5-216Q721-211 720.5-205.5Q720-200 719.5-196Q719-192 718-194Q720-193 722-193Q724-193 724-194Q722-195 722-196.5Q722-198 727-197Q724-203 726.5-210Q729-217 727-223L725-223L724-223Q723-224 723.5-226Q724-228 723-229Q721-237 720-238Q719-239 716-243Q714-245 713.5-248Q713-251 711-246Q712-245 714-242Q716-239 717-237M874-180Q871-186 867-189Q867-186 865.5-182Q864-178 863.5-175.5Q863-173 863.5-173Q864-173 868-177Q872-169 867-166Q862-163 867-161Q867-165 870-164Q871-162 871-160.5Q871-159 873-158Q873-164 869-166Q876-168 873-172Q870-176 874-177Q875-175 876.5-174Q878-173 880-171Q885-179 883-184Q881-189 886-194Q882-201 877-200Q876-198 877.5-196Q879-194 880.5-192.5Q882-191 882-190Q882-189 879-189Q879-193 877-194.5Q875-196 874-200Q876-200 877-201.5Q878-203 878.5-204.5Q879-206 878.5-206Q878-206 877-203Q872-203 872-199.5Q872-196 873-191.5Q874-187 875-183.5Q876-180 874-180M716-186Q717-188 715-192Q713-196 713-191Q712-189 714-185.5Q716-182 716-186M938-135Q937-138 934.5-139.5Q932-141 931-138Q934-139 934-137Q934-135 933-133Q932-131 932-128.5Q932-126 936-126Q935-128 937.5-130.5Q940-133 941-132Q943-131 940-128Q937-125 939-123Q940-121 942.5-124Q945-127 945-126Q947-127 948.5-125Q950-123 950-126Q947-127 946-136.5Q945-146 948-146Q950-141 951-134.5Q952-128 956-123Q957-127 958.5-129.5Q960-132 961-135Q956-136 958.5-138Q961-140 957-141Q956-137 952-142.5Q948-148 948-152L956-152Q954-162 958-164Q954-165 951.5-166Q949-167 946-168Q944-166 945.5-160Q947-154 939-152Q937-156 938-161Q939-166 934-166Q931-164 932.5-160Q934-156 936.5-152Q939-148 940.5-143.5Q942-139 938-135M945-94Q947-95 946.5-98Q946-101 944.5-103.5Q943-106 941-106.5Q939-107 938-103Q940-103 940.5-102Q941-101 938-100Q938-104 935-103Q935-99 937.5-98Q940-97 942-94Q940-93 940-90Q940-87 941.5-84Q943-81 945-78Q947-75 948-73Q945-72 943.5-70.5Q942-69 945-68Q945-70 948.5-70Q952-70 953-68Q954-64 950-64.5Q946-65 946-62Q949-60 947.5-58.5Q946-57 947-53Q951-52 951.5-54.5Q952-57 954-59Q955-51 961-50Q962-57 959-66.5Q956-76 958-78Q961-81 959-84Q957-87 956-92Q956-94 958-95.5Q960-97 958-100Q955-101 955-106Q951-104 948-108.5Q945-113 944-106Q948-107 950-100Q952-93 945-94M1118-103L1103-103Q1101-110 1104.5-110.5Q1108-111 1108-115Q1106-113 1104-113.5Q1102-114 1100-114.5Q1098-115 1096.5-114Q1095-113 1095-109Q1096-106 1096.5-108Q1097-110 1099-109Q1098-104 1102-102Q1106-100 1097-100Q1098-98 1100.5-97.5Q1103-97 1104-94Q1104-90 1108-90Q1105-85 1102-80.5Q1099-76 1095-81Q1097-77 1094-76Q1091-75 1090-73Q1090-71 1092.5-68Q1095-65 1092-62Q1090-60 1088-65.5Q1086-71 1087-73Q1090-73 1090-73Q1091-75 1088-76.5Q1085-78 1093-76Q1093-86 1086-87Q1087-89 1090.5-90.5Q1094-92 1090-100Q1090-102 1088.5-103Q1087-104 1087-103Q1087-105 1088-108Q1089-111 1089-109Q1088-111 1084-113Q1080-115 1089-115Q1089-120 1079.5-121Q1070-122 1068-117Q1064-119 1065.5-121.5Q1067-124 1068-126Q1070-131 1075-132Q1072-138 1075-139.5Q1078-141 1080-143Q1080-145 1079-147Q1078-149 1079-149Q1080-150 1082-149Q1084-148 1085-149Q1087-153 1088.5-157Q1090-161 1092-164Q1094-166 1096.5-168Q1099-170 1101-174Q1103-176 1102.5-178.5Q1102-181 1103-183L1109-189Q1111-192 1113.5-194.5Q1116-197 1118-200Q1120-202 1119.5-204.5Q1119-207 1120-209Q1122-212 1125.5-214.5Q1129-217 1131-220Q1133-222 1132-224.5Q1131-227 1133-229Q1135-233 1138-235.5Q1141-238 1143-240Q1144-242 1145.5-243Q1147-244 1148-246Q1150-248 1149.5-250.5Q1149-253 1150-254Q1153-258 1157-260Q1161-262 1164-265Q1166-268 1168.5-273.5Q1171-279 1177-277Q1185-278 1186-268Q1189-266 1192.5-265.5Q1196-265 1198-260Q1197-253 1193-246Q1189-239 1187-232Q1186-230 1184.5-227Q1183-224 1183-220Q1183-217 1180.5-216Q1178-215 1178-212Q1178-209 1175.5-208Q1173-207 1173-203Q1173-202 1172-200.5Q1171-199 1171-197Q1170-195 1170-193Q1170-191 1168-189Q1167-187 1165-186Q1163-185 1161-183Q1159-179 1159-175Q1159-171 1157-166Q1156-165 1154.5-164Q1153-163 1152-161Q1150-158 1148.5-154.5Q1147-151 1144-146Q1143-145 1142.5-145.5Q1142-146 1142-143Q1142-142 1139.5-137.5Q1137-133 1135-132Q1131-132 1133-128.5Q1135-125 1133-123Q1131-121 1127-120.5Q1123-120 1121-117Q1119-115 1119.5-111Q1120-107 1118-103M1103-129Q1105-127 1110.5-129Q1116-131 1109-135Q1110-133 1106-132Q1102-131 1103-129M1019-45Q1014-45 1018-49.5Q1022-54 1022-56Q1022-61 1019-57Q1016-53 1018-50Q1013-50 1014.5-55Q1016-60 1017-62Q1012-57 1011-60Q1010-63 1006-59Q1006-55 1007.5-53.5Q1009-52 1010.5-50.5Q1012-49 1012-48Q1012-47 1010-45Q1007-46 1006-50Q1005-54 1003-59Q1005-58 1006-59.5Q1007-61 1007.5-62.5Q1008-64 1009-64.5Q1010-65 1011-62Q1016-64 1017-68Q1018-72 1021-76Q1024-74 1026.5-72.5Q1029-71 1033-70Q1034-68 1030-65.5Q1026-63 1028-62Q1028-62 1029-62L1031-62Q1030-63 1029.5-57.5Q1029-52 1029-53Q1028-52 1024.5-52Q1021-52 1023-50Q1023-49 1024.5-49Q1026-49 1026-50Q1024-48 1022-47.5Q1020-47 1019-45M1052-50Q1055-53 1056.5-50.5Q1058-48 1058.5-43.5Q1059-39 1059-34Q1059-29 1058-27Q1049-27 1049-24Q1047-24 1047-25.5Q1047-27 1049-27Q1049-30 1047.5-31.5Q1046-33 1046-36Q1041-38 1041.5-38Q1042-38 1044-37Q1046-36 1047.5-35Q1049-34 1048-33Q1053-35 1049.5-37.5Q1046-40 1050-45Q1050-45 1046-47Q1045-49 1047.5-49Q1050-49 1052-48Q1054-47 1055-47Q1056-47 1052-50M1043-62Q1038-56 1037-60.5Q1036-65 1036-70Q1037-70 1039-69Q1042-66 1042-68Q1044-71 1040.5-79Q1037-87 1036-92Q1041-93 1045.5-92Q1050-91 1047-97Q1049-97 1049-95.5Q1049-94 1050-92Q1053-94 1055-100Q1060-97 1057.5-94Q1055-91 1060-87Q1062-89 1063-90.5Q1064-92 1065-94Q1066-98 1064-99.5Q1062-101 1060-102Q1058-103 1056-104Q1054-105 1054-109Q1057-109 1063.5-109.5Q1070-110 1063-112Q1065-119 1067-114Q1069-109 1071-109Q1076-104 1072.5-100.5Q1069-97 1071-92Q1072-90 1076-88.5Q1080-87 1071-87Q1074-84 1073.5-82.5Q1073-81 1072-78Q1070-79 1068.5-81Q1067-83 1063-84Q1059-85 1057.5-82Q1056-79 1054-84Q1049-79 1050-69.5Q1051-60 1063-62Q1063-59 1061-59Q1059-59 1057-59Q1057-58 1055-57Q1053-56 1054-56Q1051-56 1048-57.5Q1045-59 1043-61Q1041-63 1040.5-64Q1040-65 1043-62M1085-68Q1086-60 1082.5-57Q1079-54 1075-50Q1073-49 1072.5-51Q1072-53 1071.5-55Q1071-57 1070-58.5Q1069-60 1066-59Q1066-61 1065.5-63.5Q1065-66 1065-68Q1069-71 1074.5-70Q1080-69 1085-68M1016-10Q1022-12 1017.5-14.5Q1013-17 1015-21Q1017-21 1019-19Q1020-20 1020.5-24Q1021-28 1017-30Q1017-34 1019-33.5Q1021-33 1023-32Q1025-31 1027-30.5Q1029-30 1028-33Q1036-30 1033.5-24Q1031-18 1036-16Q1034-14 1028-11Q1022-8 1024-16Q1020-14 1021-7.5Q1022-1 1014-4Q1014-8 1012-9.5Q1010-11 1010-16Q1016-17 1016-10"/>
  <path fill="#f4d84f" d="M1501-212Q1510-214 1518.5-218Q1527-222 1534-226Q1536-227 1538.5-227Q1541-227 1543-229Q1545-230 1546-233Q1547-236 1548-237Q1552-240 1556.5-241Q1561-242 1565-245Q1567-246 1567.5-248.5Q1568-251 1570-252Q1577-254 1578-255Q1580-257 1581-259.5Q1582-262 1584-263Q1586-265 1588.5-265Q1591-265 1593-267Q1599-272 1605.5-278Q1612-284 1623-286Q1628-281 1632.5-275Q1637-269 1645-267Q1648-258 1642-250Q1636-242 1631-237Q1629-236 1630-234.5Q1631-233 1628-233Q1625-233 1622-224.5Q1619-216 1613-216Q1610-215 1609.5-211Q1609-207 1605-204Q1604-204 1602-204.5Q1600-205 1600-204Q1599-204 1599-201Q1599-198 1598-197Q1597-196 1595-197Q1593-198 1593-197Q1592-196 1592-193Q1592-190 1591-189Q1590-188 1587.5-189.5Q1585-191 1584-189Q1580-182 1571.5-174Q1563-166 1555-159Q1554-158 1554.5-157Q1555-156 1553-156Q1550-156 1548.5-152.5Q1547-149 1542-149Q1542-149 1540-149L1539-149Q1534-147 1527-143Q1520-139 1509-141Q1506-142 1499-145Q1492-148 1486-152Q1484-154 1484.5-155Q1485-156 1482-156Q1479-156 1471-165Q1463-174 1457-182Q1453-185 1450-189.5Q1447-194 1444-197Q1443-199 1440.5-199Q1438-199 1437-201Q1436-202 1436.5-204.5Q1437-207 1436-208Q1433-210 1432-216Q1430-221 1425-233Q1424-236 1423-246Q1422-256 1421-267.5Q1420-279 1419.5-291Q1419-303 1419-311Q1419-315 1419-325Q1419-335 1420-341Q1418-345 1415.5-341.5Q1413-338 1412-337Q1409-334 1407-329Q1405-324 1400-319Q1399-317 1396.5-318.5Q1394-320 1394-319Q1393-317 1393-314.5Q1393-312 1392-311Q1390-309 1386.5-308Q1383-307 1381-304Q1381-303 1382.5-300Q1384-297 1383-296Q1378-293 1377-292Q1368-280 1357-266Q1346-252 1337-237Q1335-235 1335.5-230Q1336-225 1334-222Q1332-220 1330-218.5Q1328-217 1326-215Q1324-210 1322-204Q1320-198 1317-192Q1315-189 1314-187.5Q1313-186 1311-182Q1309-177 1307-171Q1305-165 1302-160Q1301-158 1300-159Q1299-160 1299-156Q1300-155 1299-152.5Q1298-150 1298-148Q1296-146 1293.5-143Q1291-140 1291-138Q1290-136 1290-134Q1290-132 1289-130Q1286-125 1285-118Q1283-116 1282.5-113Q1282-110 1280-108Q1279-106 1279.5-102Q1280-98 1279-96L1276-96Q1275-95 1276.5-92.5Q1278-90 1277-89L1275-89L1274-89Q1273-86 1274-82Q1275-78 1273-75Q1273-73 1270.5-72.5Q1268-72 1268-71Q1267-67 1267.5-64Q1268-61 1267-56Q1267-54 1266.5-54Q1266-54 1266-52Q1262-39 1260.5-25.5Q1259-12 1252 0Q1254 10 1252 16.5Q1250 23 1248 28Q1232 30 1222.5 22.5Q1213 15 1199 10Q1197 5 1193.5 1.5Q1190-2 1190-11Q1180-14 1173-19.5Q1166-25 1158-30Q1156-32 1156.5-37.5Q1157-43 1155-45L1153-45Q1151-53 1150-63.5Q1149-74 1149-85Q1149-86 1150.5-86.5Q1152-87 1151-89Q1150-97 1149.5-104.5Q1149-112 1148-122Q1148-139 1149-156Q1150-173 1152-189Q1153-194 1152.5-202Q1152-210 1154-215Q1155-217 1155.5-216Q1156-215 1155-218Q1155-223 1156.5-227.5Q1158-232 1158-237Q1159-242 1158.5-245Q1158-248 1159-252Q1161-260 1163-266Q1163-268 1164.5-267.5Q1166-267 1165-270Q1165-271 1164-278.5Q1163-286 1165-288Q1167-290 1168-291Q1169-292 1170-296Q1171-301 1170-304Q1169-307 1171-311Q1171-313 1172-312Q1173-311 1172-315Q1172-319 1174-319.5Q1176-320 1177-322Q1178-324 1176.5-326.5Q1175-329 1176-330L1177-330L1179-330Q1179-332 1178-334Q1177-336 1178-337Q1180-339 1181.5-342Q1183-345 1185-352Q1185-354 1187-358Q1187-360 1187-364.5Q1187-369 1188-370Q1191-374 1192-376.5Q1193-379 1195-385Q1195-387 1196-386Q1197-385 1196-389Q1196-391 1198.5-395Q1201-399 1203-404Q1205-406 1205.5-409Q1206-412 1208-415Q1210-418 1215-424.5Q1220-431 1220-436Q1219-439 1221-443.5Q1223-448 1226-448Q1227-448 1229-451Q1231-454 1232-455Q1238-465 1251-476.5Q1264-488 1274-489Q1284-489 1292-484Q1300-479 1308-474Q1311-472 1312-470Q1313-468 1315-466Q1318-464 1319.5-460.5Q1321-457 1324-455Q1329-451 1336-447Q1343-443 1345-432Q1349-423 1345-417Q1341-411 1339-404Q1337-401 1335.5-397.5Q1334-394 1332-389Q1330-382 1327-370Q1326-368 1324.5-369Q1323-370 1324-366Q1324-364 1322.5-362.5Q1321-361 1322-358Q1322-356 1321-355.5Q1320-355 1320-352Q1334-363 1345.5-378Q1357-393 1372-407Q1373-408 1375.5-407Q1378-406 1378-407Q1379-408 1379-411Q1379-414 1380-415Q1383-417 1387.5-420Q1392-423 1397-427Q1398-428 1399-429.5Q1400-431 1402-432Q1403-433 1405.5-432Q1408-431 1408-432Q1410-437 1419.5-446Q1429-455 1441-452Q1440-452 1446-450Q1449-449 1451-448Q1453-446 1457.5-441Q1462-436 1465-436Q1467-436 1471.5-432.5Q1476-429 1477-427Q1478-422 1481-420.5Q1484-419 1488-415Q1501-399 1505-389Q1506-387 1506-384.5Q1506-382 1507-381Q1507-380 1507.5-376Q1508-372 1508-362Q1508-353 1507.5-338.5Q1507-324 1506.5-308Q1506-292 1505-276.5Q1504-261 1503-252Q1503-251 1504-248.5Q1505-246 1504-245Q1502-243 1502-231Q1502-219 1501-212M1240-378Q1240-374 1239-375Q1238-376 1237-374Q1234-366 1232.5-361.5Q1231-357 1228-352Q1226-347 1223.5-343.5Q1221-340 1221-337Q1222-332 1218-329.5Q1214-327 1215-322Q1216-316 1213-313Q1210-310 1208-308Q1207-307 1208.5-304.5Q1210-302 1210-300Q1208-298 1207-296.5Q1206-295 1204-292Q1202-286 1201-281Q1200-276 1198-274Q1197-273 1197.5-268.5Q1198-264 1197-262Q1195-259 1196-254.5Q1197-250 1194-249Q1195-245 1197.5-242.5Q1200-240 1200-245Q1199-245 1198-246.5Q1197-248 1200-249Q1202-249 1203-250.5Q1204-252 1206-252Q1205-264 1210-272Q1215-280 1221-285Q1220-294 1222-298.5Q1224-303 1227-307.5Q1230-312 1232-316.5Q1234-321 1232-330Q1237-329 1238-330.5Q1239-332 1239-334.5Q1239-337 1238.5-339Q1238-341 1240-341Q1242-342 1239-348Q1242-344 1243-345Q1244-346 1245-349Q1246-352 1247-355Q1248-358 1251-358Q1250-365 1245-370Q1250-378 1252.5-383.5Q1255-389 1253-400Q1257-400 1255-404.5Q1253-409 1252-404Q1251-396 1244.5-389.5Q1238-383 1240-378M1179-241Q1181-251 1180-253Q1179-255 1178-253Q1177-251 1176.5-247Q1176-243 1179-241M1169-215Q1169-210 1167.5-206Q1166-202 1171-200Q1170-205 1171.5-209Q1173-213 1174-218Q1175-224 1176-229.5Q1177-235 1174-237Q1173-232 1171-224.5Q1169-217 1169-215M1168-96L1174-96Q1173-98 1173-100Q1173-102 1172-104L1167-104Q1167-102 1167.5-100Q1168-98 1168-96"/>
  <path fill="#f4d84f" d="M1943-212Q1952-214 1960.5-218Q1969-222 1976-226Q1978-227 1980.5-227Q1983-227 1985-229Q1987-230 1988-233Q1989-236 1990-237Q1994-240 1998.5-241Q2003-242 2007-245Q2009-246 2009.5-248.5Q2010-251 2012-252Q2019-254 2020-255Q2022-257 2023-259.5Q2024-262 2026-263Q2028-265 2030.5-265Q2033-265 2035-267Q2041-272 2047.5-278Q2054-284 2065-286Q2070-281 2074.5-275Q2079-269 2087-267Q2090-258 2084-250Q2078-242 2073-237Q2071-236 2072-234.5Q2073-233 2070-233Q2067-233 2064-224.5Q2061-216 2055-216Q2052-215 2051.5-211Q2051-207 2047-204Q2046-204 2044-204.5Q2042-205 2042-204Q2041-204 2041-201Q2041-198 2040-197Q2039-196 2037-197Q2035-198 2035-197Q2034-196 2034-193Q2034-190 2033-189Q2032-188 2029.5-189.5Q2027-191 2026-189Q2022-182 2013.5-174Q2005-166 1997-159Q1996-158 1996.5-157Q1997-156 1995-156Q1992-156 1990.5-152.5Q1989-149 1984-149Q1984-149 1982-149L1981-149Q1976-147 1969-143Q1962-139 1951-141Q1948-142 1941-145Q1934-148 1928-152Q1926-154 1926.5-155Q1927-156 1924-156Q1921-156 1913-165Q1905-174 1899-182Q1895-185 1892-189.5Q1889-194 1886-197Q1885-199 1882.5-199Q1880-199 1879-201Q1878-202 1878.5-204.5Q1879-207 1878-208Q1875-210 1874-216Q1872-221 1867-233Q1866-236 1865-246Q1864-256 1863-267.5Q1862-279 1861.5-291Q1861-303 1861-311Q1861-315 1861-325Q1861-335 1862-341Q1860-345 1857.5-341.5Q1855-338 1854-337Q1851-334 1849-329Q1847-324 1842-319Q1841-317 1838.5-318.5Q1836-320 1836-319Q1835-317 1835-314.5Q1835-312 1834-311Q1832-309 1828.5-308Q1825-307 1823-304Q1823-303 1824.5-300Q1826-297 1825-296Q1820-293 1819-292Q1810-280 1799-266Q1788-252 1779-237Q1777-235 1777.5-230Q1778-225 1776-222Q1774-220 1772-218.5Q1770-217 1768-215Q1766-210 1764-204Q1762-198 1759-192Q1757-189 1756-187.5Q1755-186 1753-182Q1751-177 1749-171Q1747-165 1744-160Q1743-158 1742-159Q1741-160 1741-156Q1742-155 1741-152.5Q1740-150 1740-148Q1738-146 1735.5-143Q1733-140 1733-138Q1732-136 1732-134Q1732-132 1731-130Q1728-125 1727-118Q1725-116 1724.5-113Q1724-110 1722-108Q1721-106 1721.5-102Q1722-98 1721-96L1718-96Q1717-95 1718.5-92.5Q1720-90 1719-89L1717-89L1716-89Q1715-86 1716-82Q1717-78 1715-75Q1715-73 1712.5-72.5Q1710-72 1710-71Q1709-67 1709.5-64Q1710-61 1709-56Q1709-54 1708.5-54Q1708-54 1708-52Q1704-39 1702.5-25.5Q1701-12 1694 0Q1696 10 1694 16.5Q1692 23 1690 28Q1674 30 1664.5 22.5Q1655 15 1641 10Q1639 5 1635.5 1.5Q1632-2 1632-11Q1622-14 1615-19.5Q1608-25 1600-30Q1598-32 1598.5-37.5Q1599-43 1597-45L1595-45Q1593-53 1592-63.5Q1591-74 1591-85Q1591-86 1592.5-86.5Q1594-87 1593-89Q1592-97 1591.5-104.5Q1591-112 1590-122Q1590-139 1591-156Q1592-173 1594-189Q1595-194 1594.5-202Q1594-210 1596-215Q1597-217 1597.5-216Q1598-215 1597-218Q1597-223 1598.5-227.5Q1600-232 1600-237Q1601-242 1600.5-245Q1600-248 1601-252Q1603-260 1605-266Q1605-268 1606.5-267.5Q1608-267 1607-270Q1607-271 1606-278.5Q1605-286 1607-288Q1609-290 1610-291Q1611-292 1612-296Q1613-301 1612-304Q1611-307 1613-311Q1613-313 1614-312Q1615-311 1614-315Q1614-319 1616-319.5Q1618-320 1619-322Q1620-324 1618.5-326.5Q1617-329 1618-330L1619-330L1621-330Q1621-332 1620-334Q1619-336 1620-337Q1622-339 1623.5-342Q1625-345 1627-352Q1627-354 1629-358Q1629-360 1629-364.5Q1629-369 1630-370Q1633-374 1634-376.5Q1635-379 1637-385Q1637-387 1638-386Q1639-385 1638-389Q1638-391 1640.5-395Q1643-399 1645-404Q1647-406 1647.5-409Q1648-412 1650-415Q1652-418 1657-424.5Q1662-431 1662-436Q1661-439 1663-443.5Q1665-448 1668-448Q1669-448 1671-451Q1673-454 1674-455Q1680-465 1693-476.5Q1706-488 1716-489Q1726-489 1734-484Q1742-479 1750-474Q1753-472 1754-470Q1755-468 1757-466Q1760-464 1761.5-460.5Q1763-457 1766-455Q1771-451 1778-447Q1785-443 1787-432Q1791-423 1787-417Q1783-411 1781-404Q1779-401 1777.5-397.5Q1776-394 1774-389Q1772-382 1769-370Q1768-368 1766.5-369Q1765-370 1766-366Q1766-364 1764.5-362.5Q1763-361 1764-358Q1764-356 1763-355.5Q1762-355 1762-352Q1776-363 1787.5-378Q1799-393 1814-407Q1815-408 1817.5-407Q1820-406 1820-407Q1821-408 1821-411Q1821-414 1822-415Q1825-417 1829.5-420Q1834-423 1839-427Q1840-428 1841-429.5Q1842-431 1844-432Q1845-433 1847.5-432Q1850-431 1850-432Q1852-437 1861.5-446Q1871-455 1883-452Q1882-452 1888-450Q1891-449 1893-448Q1895-446 1899.5-441Q1904-436 1907-436Q1909-436 1913.5-432.5Q1918-429 1919-427Q1920-422 1923-420.5Q1926-419 1930-415Q1943-399 1947-389Q1948-387 1948-384.5Q1948-382 1949-381Q1949-380 1949.5-376Q1950-372 1950-362Q1950-353 1949.5-338.5Q1949-324 1948.5-308Q1948-292 1947-276.5Q1946-261 1945-252Q1945-251 1946-248.5Q1947-246 1946-245Q1944-243 1944-231Q1944-219 1943-212M1682-378Q1682-374 1681-375Q1680-376 1679-374Q1676-366 1674.5-361.5Q1673-357 1670-352Q1668-347 1665.5-343.5Q1663-340 1663-337Q1664-332 1660-329.5Q1656-327 1657-322Q1658-316 1655-313Q1652-310 1650-308Q1649-307 1650.5-304.5Q1652-302 1652-300Q1650-298 1649-296.5Q1648-295 1646-292Q1644-286 1643-281Q1642-276 1640-274Q1639-273 1639.5-268.5Q1640-264 1639-262Q1637-259 1638-254.5Q1639-250 1636-249Q1637-245 1639.5-242.5Q1642-240 1642-245Q1641-245 1640-246.5Q1639-248 1642-249Q1644-249 1645-250.5Q1646-252 1648-252Q1647-264 1652-272Q1657-280 1663-285Q1662-294 1664-298.5Q1666-303 1669-307.5Q1672-312 1674-316.5Q1676-321 1674-330Q1679-329 1680-330.5Q1681-332 1681-334.5Q1681-337 1680.5-339Q1680-341 1682-341Q1684-342 1681-348Q1684-344 1685-345Q1686-346 1687-349Q1688-352 1689-355Q1690-358 1693-358Q1692-365 1687-370Q1692-378 1694.5-383.5Q1697-389 1695-400Q1699-400 1697-404.5Q1695-409 1694-404Q1693-396 1686.5-389.5Q1680-383 1682-378M1621-241Q1623-251 1622-253Q1621-255 1620-253Q1619-251 1618.5-247Q1618-243 1621-241M1611-215Q1611-210 1609.5-206Q1608-202 1613-200Q1612-205 1613.5-209Q1615-213 1616-218Q1617-224 1618-229.5Q1619-235 1616-237Q1615-232 1613-224.5Q1611-217 1611-215M1610-96L1616-96Q1615-98 1615-100Q1615-102 1614-104L1609-104Q1609-102 1609.5-100Q1610-98 1610-96"/>
  <path fill="#f4d84f" d="M2209-468Q2203-471 2195.5-473Q2188-475 2183-479Q2181-481 2180-482.5Q2179-484 2177-485Q2176-486 2174-485Q2172-484 2171-485Q2170-486 2169.5-488Q2169-490 2168-491Q2163-494 2158-497Q2153-500 2148-505Q2146-507 2146.5-509.5Q2147-512 2145-514Q2144-516 2142-517.5Q2140-519 2139-520Q2139-522 2139.5-523Q2140-524 2139-526Q2138-530 2136.5-543.5Q2135-557 2137-571L2137-576Q2139-578 2138.5-578.5Q2138-579 2137.5-579.5Q2137-580 2136.5-581.5Q2136-583 2137-588Q2137-589 2138-589Q2139-589 2139-591Q2140-597 2145-602Q2150-607 2154-614Q2158-616 2163-614.5Q2168-613 2174-611Q2182-609 2185.5-607.5Q2189-606 2194-602Q2196-601 2195.5-600Q2195-599 2197-599Q2201-599 2203-595Q2205-591 2209-588Q2214-583 2220-581Q2226-579 2231-574Q2232-573 2231-571Q2230-569 2231-568Q2232-568 2234-567Q2236-566 2236-565Q2237-563 2236-560.5Q2235-558 2236-556Q2237-555 2238-555Q2239-555 2239-553Q2240-548 2239-544Q2238-540 2236-534Q2235-529 2234-523.5Q2233-518 2231-514Q2230-513 2229.5-509.5Q2229-506 2228-505L2226-505L2225-505Q2225-504 2225.5-502.5Q2226-501 2225-500L2223-500L2222-500Q2222-499 2222.5-497Q2223-495 2222-494Q2219-491 2216.5-483Q2214-475 2209-468M2274-272Q2272-266 2265-266Q2264-271 2267-271.5Q2270-272 2274-272M2251-220Q2246-222 2243.5-219.5Q2241-217 2239-215Q2237-213 2235-212Q2233-211 2233-206Q2231-206 2228.5-210Q2226-214 2233-212Q2233-217 2236-217Q2232-226 2235.5-231.5Q2239-237 2242-243L2259-243Q2260-249 2254-249Q2253-252 2256-251.5Q2259-251 2259-252Q2261-255 2258-254.5Q2255-254 2254-255Q2253-257 2255-258Q2257-259 2257-261Q2265-263 2265-259.5Q2265-256 2262-252Q2266-251 2268-253Q2270-255 2271-257Q2272-259 2273.5-260.5Q2275-262 2280-261Q2283-258 2282-256.5Q2281-255 2278.5-253.5Q2276-252 2274-250Q2272-248 2274-243Q2268-242 2268-249Q2264-247 2264.5-245.5Q2265-244 2266.5-242Q2268-240 2270-237.5Q2272-235 2271-232Q2267-230 2266.5-227Q2266-224 2262-220Q2261-220 2259-220.5Q2257-221 2257-220Q2255-218 2253.5-217Q2252-216 2251-215Q2250-214 2252-211Q2254-208 2251-203Q2250-201 2247-200Q2244-199 2242-197Q2242-189 2240-184.5Q2238-180 2235-175.5Q2232-171 2230-165.5Q2228-160 2228-152Q2226-153 2226.5-150.5Q2227-148 2225-146Q2224-146 2222-146.5Q2220-147 2219-146Q2218-145 2219-144Q2220-143 2219-141Q2218-139 2217-136.5Q2216-134 2214-129Q2213-127 2213-125Q2213-123 2211-120Q2210-120 2208.5-118Q2207-116 2206-115Q2206-114 2207-112Q2209-108 2209-106Q2209-108 2207.5-106.5Q2206-105 2206-104Q2206-103 2206.5-101.5Q2207-100 2206-98Q2206-97 2203.5-97Q2201-97 2200-96Q2199-95 2200-93.5Q2201-92 2200-91Q2198-87 2196-84Q2194-81 2191-76Q2191-74 2189-74L2188-73Q2186-71 2187-67.5Q2188-64 2186-62Q2184-60 2181-59Q2178-58 2177-53Q2177-47 2167.5-46Q2158-45 2155-37Q2153-32 2142-31.5Q2131-31 2116.5-34.5Q2102-38 2088-44Q2074-50 2065-59Q2063-61 2061.5-63Q2060-65 2057-68Q2055-70 2051-70.5Q2047-71 2045-73Q2043-75 2042-78Q2041-81 2038-84Q2036-87 2032-89.5Q2028-92 2026-94Q2024-97 2023-102Q2022-107 2020-112Q2020-114 2018-115.5Q2016-117 2015-118Q2015-123 2015-123Q2014-126 2011.5-135Q2009-144 2009-149L2010-150Q2012-152 2012-152L2012-158Q2015-161 2013-161.5Q2011-162 2012-167Q2013-170 2013-173Q2013-176 2015-178Q2016-180 2018-181.5Q2020-183 2020-184Q2022-191 2022-198.5Q2022-206 2023-215Q2027-217 2028.5-221Q2030-225 2032-229Q2034-232 2033.5-235Q2033-238 2035-243Q2036-245 2038.5-245Q2041-245 2041-246Q2042-248 2041.5-249.5Q2041-251 2041-252L2042-255Q2044-260 2043.5-265Q2043-270 2045-275Q2046-277 2048.5-277Q2051-277 2051-278Q2053-283 2053.5-289Q2054-295 2057-300Q2058-301 2058.5-304.5Q2059-308 2060-309Q2063-311 2062-313.5Q2061-316 2063-320Q2064-322 2066-322Q2068-322 2068-323Q2070-326 2068.5-329.5Q2067-333 2068-335Q2069-336 2070-335.5Q2071-335 2071-337Q2071-340 2073.5-341.5Q2076-343 2077-346Q2078-348 2077-349.5Q2076-351 2077-352Q2078-353 2080.5-352Q2083-351 2083-352L2083-354L2083-355Q2085-357 2086-359Q2087-361 2091-363Q2090-369 2092-372Q2094-375 2094-380Q2097-380 2098.5-382Q2100-384 2101-386Q2102-388 2103.5-389.5Q2105-391 2109-391Q2107-403 2114-406Q2121-409 2126-414Q2134-412 2142.5-409Q2151-406 2160-403Q2158-398 2159.5-395.5Q2161-393 2162.5-391Q2164-389 2165-387Q2166-385 2165-380Q2165-377 2166-377.5Q2167-378 2169-379Q2171-380 2172.5-380.5Q2174-381 2174-377Q2174-374 2176-375.5Q2178-377 2180-377Q2179-377 2180.5-375Q2182-373 2183-374Q2185-377 2186-375.5Q2187-374 2191-374Q2193-373 2192.5-370.5Q2192-368 2194-366Q2195-365 2197.5-364.5Q2200-364 2200-363Q2202-361 2200.5-355Q2199-349 2206-349Q2202-342 2203.5-336.5Q2205-331 2203-326L2200-326L2197-326Q2197-325 2199-322.5Q2201-320 2200-317Q2200-316 2197-314Q2194-312 2194-311Q2194-308 2196.5-305Q2199-302 2197-297Q2195-298 2194-299Q2193-300 2191-300Q2193-289 2190.5-280Q2188-271 2186-261Q2186-259 2187-250.5Q2188-242 2186-240L2184-240L2183-240L2183-238L2183-235Q2179-232 2179.5-222Q2180-212 2177-203Q2177-202 2175.5-202Q2174-202 2174-200Q2174-198 2173-197Q2172-196 2171-194Q2170-189 2171-182.5Q2172-176 2171-169Q2170-161 2166.5-155Q2163-149 2165-141Q2165-138 2167-139Q2169-140 2171.5-140.5Q2174-141 2176-140.5Q2178-140 2177-135Q2184-136 2183-143.5Q2182-151 2183-158L2188-158Q2187-162 2189-163.5Q2191-165 2191-167Q2193-167 2193-165Q2193-163 2194-161Q2198-161 2199-164.5Q2200-168 2199.5-171Q2199-174 2198.5-174.5Q2198-175 2200-169Q2203-170 2203-174Q2203-178 2203-181Q2207-183 2209-184.5Q2211-186 2214-187Q2213-189 2215-191Q2216-192 2217-192Q2218-194 2216-196Q2214-198 2214-197Q2215-200 2218-200.5Q2221-201 2219-206Q2221-205 2223-204Q2225-203 2228-203Q2227-203 2228.5-205.5Q2230-208 2231-206Q2233-203 2236-209Q2241-208 2236.5-203.5Q2232-199 2228-200Q2231-197 2231-190Q2238-186 2236-192Q2234-198 2236-200Q2238-202 2241-200.5Q2244-199 2245-200Q2247-202 2244.5-203Q2242-204 2242-203Q2243-206 2244.5-205Q2246-204 2248-206Q2250-210 2248-213.5Q2246-217 2251-220M2142-340Q2148-340 2149.5-336Q2151-332 2154-329Q2158-341 2158.5-347.5Q2159-354 2160-369Q2158-370 2154-374Q2150-378 2148-371Q2153-370 2153-367Q2153-364 2148-369Q2146-359 2149-359.5Q2152-360 2154-358Q2152-354 2152-348Q2152-342 2148-340Q2145-346 2149-350.5Q2153-355 2148-355Q2146-352 2145-347.5Q2144-343 2142-340M2171-349Q2173-357 2170-359.5Q2167-362 2168-369Q2168-372 2165-371Q2165-363 2164-357.5Q2163-352 2171-349M2145-360Q2142-360 2141.5-363Q2141-366 2139-366Q2137-361 2140.5-358Q2144-355 2145-360M2137-309Q2141-319 2131-329Q2134-325 2133.5-318Q2133-311 2137-309M2057-141Q2058-147 2056.5-148.5Q2055-150 2053.5-148.5Q2052-147 2052.5-144.5Q2053-142 2057-141M2091-235Q2095-239 2094-242Q2093-245 2094-249Q2095-251 2097.5-252.5Q2100-254 2100-255Q2102-261 2102-263Q2102-265 2103-269Q2104-271 2105-271Q2106-271 2106-272Q2109-279 2107.5-279.5Q2106-280 2106-283Q2106-285 2107.5-286Q2109-287 2109-286Q2109-288 2107.5-287.5Q2106-287 2106-288Q2105-292 2109.5-295Q2114-298 2112-300Q2109-302 2106.5-303.5Q2104-305 2100-306Q2100-301 2097.5-298Q2095-295 2097-288Q2094-289 2095-287Q2096-285 2094-283Q2093-282 2091.5-282Q2090-282 2089-281Q2087-276 2087.5-271Q2088-266 2086-264Q2086-263 2083.5-263Q2081-263 2080-261Q2078-256 2078.5-250.5Q2079-245 2077-240Q2075-239 2074-238Q2071-235 2071-235Q2069-230 2069.5-223.5Q2070-217 2068-212Q2068-212 2065-209Q2063-205 2062.5-198.5Q2062-192 2060-190L2060-187Q2060-185 2058.5-185Q2057-185 2057-184Q2055-176 2055-168Q2055-160 2054-152Q2057-152 2059-150Q2061-148 2063-152Q2059-157 2063-157Q2067-157 2063-161Q2061-163 2063-164Q2065-165 2065-164Q2066-168 2066-170.5Q2066-173 2068-175Q2069-176 2068.5-178Q2068-180 2068-181Q2069-183 2071-184Q2073-185 2074-187Q2075-189 2074-191Q2073-193 2074-194Q2075-196 2077.5-197.5Q2080-199 2080-200Q2082-204 2081.5-209Q2081-214 2083-217Q2084-219 2086.5-220.5Q2089-222 2089-223Q2090-226 2089.5-229Q2089-232 2091-232Q2088-225 2094-222Q2100-219 2094-223Q2094-233 2091-235M2137-306L2137-291Q2142-289 2142.5-293.5Q2143-298 2145-300Q2140-299 2139.5-301.5Q2139-304 2137-306M2137-269Q2135-277 2138-278.5Q2141-280 2142-283Q2137-282 2136-284Q2135-286 2134-289Q2133-292 2132.5-294.5Q2132-297 2129-297Q2130-289 2131-281.5Q2132-274 2137-269M2157-269Q2156-275 2155.5-280.5Q2155-286 2151-288Q2148-286 2150.5-279.5Q2153-273 2157-269M2148-264Q2147-268 2146-272Q2145-276 2139-275Q2139-270 2142-268Q2145-266 2148-264M2129-249Q2128-255 2127.5-260.5Q2127-266 2123-269Q2120-264 2121.5-258Q2123-252 2129-249M2137-264Q2137-260 2131-264Q2130-259 2132.5-258.5Q2135-258 2137.5-258.5Q2140-259 2140.5-261Q2141-263 2137-264M2117-240L2117-235Q2119-235 2120-234Q2121-233 2123-232Q2125-234 2126.5-240Q2128-246 2123-246Q2124-236 2117-240M2139-215Q2141-217 2140.5-223.5Q2140-230 2134-229Q2134-218 2139-215M2117-220L2123-220L2123-226L2117-226"/>
  <path fill="#f4d84f" d="M2553-220L2563-228Q2571-234 2582-246Q2593-258 2601-268Q2604-271 2607-276Q2610-281 2615-282Q2623-284 2625.5-281Q2628-278 2633-276Q2640-278 2642.5-275Q2645-272 2650-271Q2648-259 2642-249.5Q2636-240 2630-231L2590-179L2543-136Q2542-135 2542-133L2542-132Q2541-131 2539-132Q2537-133 2536-132L2513-110Q2512-109 2509.5-108.5Q2507-108 2507-107Q2505-102 2505-101.5Q2505-101 2501-99L2493-93Q2491-92 2491-91.5Q2491-91 2490-90Q2472-76 2453-70Q2452-70 2450.5-70.5Q2449-71 2448-70Q2446-67 2443.5-68Q2441-69 2433-67Q2431-67 2429-65.5Q2427-64 2425-64Q2411-63 2399.5-65.5Q2388-68 2376-70Q2360-74 2344-78.5Q2328-83 2313-90Q2310-92 2307.5-91.5Q2305-91 2302-93Q2300-94 2299-96Q2298-98 2296-99L2287-104L2282-110Q2280-111 2277-110.5Q2274-110 2271-112L2265-118Q2263-120 2263.5-122Q2264-124 2262-126L2257-129Q2257-130 2257.5-132Q2258-134 2257-135L2254-135Q2254-136 2254.5-138Q2255-140 2254-141L2251-141Q2251-142 2251.5-144Q2252-146 2251-147L2248-147Q2248-148 2248.5-149.5Q2249-151 2248-152L2245-152Q2245-153 2245.5-155Q2246-157 2245-158L2242-158Q2242-159 2242.5-161Q2243-163 2242-164Q2240-166 2240.5-168.5Q2241-171 2239-175Q2238-177 2237-179.5Q2236-182 2236-184Q2236-185 2238-185Q2240-185 2239-187Q2239-189 2237.5-190Q2236-191 2236-193Q2237-193 2238-194Q2239-194 2239-196Q2238-197 2237-199Q2234-201 2236-203Q2239-205 2238.5-211Q2238-217 2239-223Q2241-236 2245-249L2248-255Q2250-257 2249.5-262Q2249-267 2251-269Q2253-271 2254-273Q2255-275 2257-281Q2259-285 2259-286Q2261-288 2262-291.5Q2263-295 2265-300Q2267-302 2268-304Q2269-306 2271-309Q2273-312 2272.5-314.5Q2272-317 2274-320Q2275-321 2276-320.5Q2277-320 2277-323Q2277-326 2279.5-327Q2282-328 2282-332Q2282-335 2285-338.5Q2288-342 2290-346Q2291-347 2292-346.5Q2293-346 2293-349Q2293-352 2296.5-356Q2300-360 2302-364Q2303-365 2304-364.5Q2305-364 2305-366Q2305-369 2307.5-370Q2310-371 2310-374Q2310-379 2317.5-384Q2325-389 2330-394Q2335-399 2337.5-403.5Q2340-408 2345-412Q2347-413 2350.5-414Q2354-415 2356-417Q2358-419 2359-421.5Q2360-424 2362-426Q2364-428 2367-427.5Q2370-427 2373-429Q2375-430 2376-433.5Q2377-437 2378-437Q2380-438 2384.5-438Q2389-438 2393-440Q2397-442 2399.5-443.5Q2402-445 2404-446Q2407-447 2410-446Q2413-445 2416-446Q2426-448 2441-447.5Q2456-447 2470-443L2484-440Q2485-440 2485-438.5Q2485-437 2487-437L2496-437L2496-435Q2499-433 2503-433Q2507-433 2510-432Q2511-431 2513-431.5Q2515-432 2516-432L2516-429Q2517-428 2519-429Q2521-430 2522-429L2522-426Q2524-424 2527.5-424.5Q2531-425 2533-423Q2536-421 2538-417.5Q2540-414 2542-412Q2543-410 2544.5-407.5Q2546-405 2546-400Q2547-395 2552-395.5Q2557-396 2558-391L2564-380Q2564-379 2563.5-376.5Q2563-374 2564-374Q2567-372 2567-358.5Q2567-345 2564-335Q2563-334 2562-334Q2561-333 2561-332Q2560-330 2561-328.5Q2562-327 2561-326Q2560-324 2558-322.5Q2556-321 2555-320Q2553-317 2553.5-315.5Q2554-314 2552-312Q2551-310 2550-310.5Q2549-311 2549-309Q2549-306 2546.5-304.5Q2544-303 2542-300Q2541-298 2541-295Q2541-292 2539-292Q2538-291 2536-291.5Q2534-292 2533-292Q2531-290 2529.5-287Q2528-284 2524-284Q2522-284 2519-281Q2518-280 2517.5-277.5Q2517-275 2516-275Q2514-274 2509.5-274Q2505-274 2504-272Q2503-271 2504-269Q2505-267 2504-267Q2501-265 2497.5-265.5Q2494-266 2490-264Q2489-263 2488.5-260.5Q2488-258 2487-258Q2485-257 2484-258Q2483-259 2481-258Q2478-256 2476.5-255Q2475-254 2473-252Q2471-250 2467.5-250.5Q2464-251 2461-249Q2459-248 2459-246.5Q2459-245 2458-244Q2457-243 2455.5-244Q2454-245 2453-244L2453-241Q2451-239 2448-239.5Q2445-240 2442-238Q2441-237 2440.5-234.5Q2440-232 2439-232Q2434-230 2431.5-229Q2429-228 2425-226Q2423-225 2423.5-224Q2424-223 2422-223Q2417-223 2416-221.5Q2415-220 2410-218Q2408-216 2406-215Q2404-214 2402-212Q2400-210 2396-208.5Q2392-207 2387-206Q2383-189 2379.5-166.5Q2376-144 2381-124Q2391-123 2398-122.5Q2405-122 2413-127Q2414-128 2416-127Q2418-126 2419-127Q2420-128 2420.5-130.5Q2421-133 2422-133Q2425-135 2427.5-134.5Q2430-134 2433-136Q2434-137 2434.5-139Q2435-141 2436-141L2450-147L2492-172L2553-220M2496-377Q2495-376 2493-376.5Q2491-377 2490-377L2490-374Q2489-374 2487-374.5Q2485-375 2484-374Q2482-374 2479.5-371Q2477-368 2475-366Q2467-359 2461-351.5Q2455-344 2451-338Q2443-327 2436-316Q2429-305 2422-294Q2427-295 2432-298.5Q2437-302 2442-306Q2450-311 2455-317Q2456-318 2458-317Q2460-316 2461-317Q2463-318 2467-322Q2471-326 2474.5-330.5Q2478-335 2481-338.5Q2484-342 2484-343Q2484-345 2485-344.5Q2486-344 2487-346Q2490-351 2492-354.5Q2494-358 2496-361Q2500-366 2501.5-371Q2503-376 2507-383Q2500-385 2498.5-381.5Q2497-378 2496-377M2359-369Q2345-352 2334.5-334Q2324-316 2313-297Q2315-297 2316.5-295Q2318-293 2319-297Q2317-298 2318-299Q2319-300 2321-301.5Q2323-303 2325.5-304.5Q2328-306 2328-306Q2329-307 2328-309Q2327-311 2328-312Q2330-314 2332-315.5Q2334-317 2336-320L2336-323Q2336-325 2337-324.5Q2338-324 2339-326L2345-338Q2346-340 2348-340.5Q2350-341 2351-343Q2353-345 2353.5-348.5Q2354-352 2356-355Q2358-357 2360.5-359Q2363-361 2365-364L2365-366Q2366-372 2373.5-375.5Q2381-379 2378-386Q2371-384 2367.5-378.5Q2364-373 2359-369M2296-203Q2299-214 2299.5-221.5Q2300-229 2302-238Q2305-238 2304.5-241.5Q2304-245 2302-241Q2299-236 2295-228Q2291-220 2289-211Q2287-202 2288-193.5Q2289-185 2296-181Q2292-189 2293.5-194Q2295-199 2296-203"/>
  <path fill="#f4d84f" d="M2747-85Q2746-83 2744-82.5Q2742-82 2742-79Q2740-79 2739.5-81Q2739-83 2739-85Q2741-87 2742.5-86.5Q2744-86 2747-85M2935-259Q2935-256 2940-256Q2938-249 2938-242Q2938-235 2930-234Q2929-229 2931.5-226Q2934-223 2934-219Q2934-217 2933.5-213Q2933-209 2932-208Q2930-206 2930.5-205.5Q2931-205 2932-202Q2932-200 2931.5-195.5Q2931-191 2930-190Q2926-188 2928.5-187.5Q2931-187 2930-179Q2930-174 2926.5-171Q2923-168 2925-163Q2925-162 2926.5-160.5Q2928-159 2928-160Q2928-156 2926-153Q2924-150 2923-145Q2922-142 2923-138.5Q2924-135 2924-131Q2923-125 2922-115Q2921-105 2923-93Q2924-88 2923-82Q2922-76 2930-74Q2932-74 2933-76Q2934-78 2934-79.5Q2934-81 2934-81.5Q2934-82 2933-79Q2927-81 2932.5-83.5Q2938-86 2940-88Q2940-93 2941-97.5Q2942-102 2948-102Q2947-95 2949.5-92.5Q2952-90 2952-85Q2955-84 2955-88Q2960-83 2954.5-83Q2949-83 2946-88Q2948-86 2951-80Q2954-74 2956-79Q2959-78 2957.5-75.5Q2956-73 2956-71Q2964-69 2966.5-72Q2969-75 2973-71Q2973-77 2967-79Q2966-82 2967.5-81.5Q2969-81 2971-80Q2973-79 2974.5-78.5Q2976-78 2976-82Q2979-81 2978.5-77.5Q2978-74 2979-71Q2982-74 2982.5-80Q2983-86 2986-88Q2983-88 2983-85Q2978-85 2981.5-89Q2985-93 2989-91Q2989-84 2995-82Q2994-84 2993.5-85Q2993-86 2992-88Q2991-89 2990-91Q2989-92 2989-93Q2989-96 2991.5-97.5Q2994-99 2994-102Q2994-105 2993-108.5Q2992-112 2991-117Q2994-114 2995-115Q2996-116 2999-117Q3000-125 2997-129.5Q2994-134 2995-142Q2993-142 2993-137Q2985-139 2986.5-142.5Q2988-146 2989-151Q2984-150 2983.5-146Q2983-142 2984-137Q2982-139 2979.5-141Q2977-143 2975-145Q2971-141 2970.5-138.5Q2970-136 2970.5-133Q2971-130 2972.5-126.5Q2974-123 2974-117Q2969-117 2968-115Q2967-113 2962-114Q2967-110 2963.5-107Q2960-104 2968-105Q2965-101 2963-102.5Q2961-104 2960.5-108Q2960-112 2960-116Q2960-120 2961-122Q2956-117 2957-108Q2951-111 2951.5-113.5Q2952-116 2954-118.5Q2956-121 2958-124.5Q2960-128 2959-134Q2961-136 2962-135.5Q2963-135 2967-134Q2964-143 2965.5-144.5Q2967-146 2969-154Q2973-155 2973.5-152.5Q2974-150 2975-148Q2978-149 2977.5-151.5Q2977-154 2975-154Q2976-156 2979-157Q2982-158 2977-160Q2978-162 2980-160.5Q2982-159 2983.5-157Q2985-155 2987-154Q2989-153 2991-157Q2987-160 2984.5-162.5Q2982-165 2977-167Q2979-172 2980.5-176Q2982-180 2987-182Q2985-191 2990-193Q2995-195 2997-202Q3001-202 3000.5-200Q3000-198 2999-196.5Q2998-195 2997.5-194Q2997-193 3000-193Q2998-190 2997-185.5Q2996-181 2993-179Q2994-174 3000-176Q3006-178 3009-176L3027-176Q3029-176 3029.5-177.5Q3030-179 3032-179Q3032-189 3030-190Q3031-193 3037-199Q3035-207 3030-205Q3025-203 3020-202Q3023-199 3023.5-194.5Q3024-190 3024-185Q3020-185 3016-185Q3012-185 3012-182Q3007-183 3010.5-185Q3014-187 3009-190Q3005-189 3005.5-185Q3006-181 3001-182Q2999-180 2999.5-180.5Q3000-181 3001-183Q3002-185 3003-187.5Q3004-190 3003-193Q3006-193 3008.5-193Q3011-193 3011-196Q3010-199 3008-197Q3006-195 3003-196Q3002-198 3005-197.5Q3008-197 3008-199Q3009-201 3006-202.5Q3003-204 3003-205Q3002-207 3004-209.5Q3006-212 2996-211Q2997-213 3000.5-213.5Q3004-214 3005-216Q3007-220 3005.5-223.5Q3004-227 3006-231Q3011-240 3014-245.5Q3017-251 3020-254.5Q3023-258 3027-261.5Q3031-265 3039-270Q3050-270 3054-259Q3059-260 3060.5-258.5Q3062-257 3065-256Q3063-250 3068-250Q3065-241 3065.5-239.5Q3066-238 3066.5-237.5Q3067-237 3067.5-235.5Q3068-234 3065-225Q3062-222 3054-222Q3055-219 3056-216Q3057-213 3057-208Q3053-204 3043-205Q3047-193 3045-187.5Q3043-182 3035-176Q3037-172 3037.5-174.5Q3038-177 3038-179Q3040-179 3041-177Q3042-175 3041-173Q3041-170 3037.5-169.5Q3034-169 3033-167Q3031-164 3031.5-164Q3032-164 3031-167Q3030-166 3028-163Q3026-160 3025.5-157Q3025-154 3025.5-152Q3026-150 3031-151Q3030-146 3028-143Q3026-140 3024-137Q3022-137 3021.5-139Q3021-141 3020-142Q3017-141 3015-134Q3010-134 3011.5-140.5Q3013-147 3011-151Q3015-147 3015.5-148Q3016-149 3016-151.5Q3016-154 3017-156Q3018-158 3022-157Q3020-162 3017.5-165Q3015-168 3013-173Q3008-173 3007-171Q3006-169 3005-173Q3000-173 3001-169Q3002-165 2999-163Q2999-162 2995.5-162Q2992-162 2994-160Q2995-159 2996-159Q2997-158 2996-157Q2993-154 2996-153.5Q2999-153 3000-151Q3000-150 2998-148Q2996-146 2997-145Q2997-145 3000.5-144.5Q3004-144 3006.5-143.5Q3009-143 3008.5-142.5Q3008-142 3000-142Q2995-142 2997-138Q2999-134 3001-128Q3003-123 3002.5-117Q3002-111 3007-108Q3008-98 3000-99Q3000-97 3002-97Q3004-97 3006-96Q3006-94 3003.5-94Q3001-94 3000-93Q2998-90 2999-86.5Q3000-83 2998-79Q2996-77 2996.5-74Q2997-71 2995-69Q2995-67 2991.5-67.5Q2988-68 2988-66Q2987-65 2990-62Q2993-59 2991-57Q2988-57 2987.5-61Q2987-65 2985-66Q2982-68 2983.5-63.5Q2985-59 2983-57Q2979-53 2980.5-49Q2982-45 2981-43Q2981-42 2978-43Q2975-44 2975-43Q2974-42 2976-40.5Q2978-39 2978-37Q2977-36 2976-36Q2975-35 2975-34Q2975-30 2972-28Q2969-26 2970-20Q2966-21 2963.5-19.5Q2961-18 2959.5-16.5Q2958-15 2957-15Q2956-15 2956-20Q2953-19 2953.5-15Q2954-11 2951-11Q2948-6 2945-4.5Q2942-3 2938.5-3.5Q2935-4 2930-4Q2925-4 2919-2Q2919-7 2915.5-6.5Q2912-6 2910-8Q2906-12 2903.5-17Q2901-22 2896-25Q2895-25 2893.5-23.5Q2892-22 2890-22Q2889-22 2889-23Q2887-25 2887-25Q2885-25 2883-26Q2879-28 2879-28Q2873-32 2873.5-36Q2874-40 2866-40Q2866-47 2865-51Q2863-51 2863.5-52.5Q2864-54 2865-54Q2863-56 2862.5-58.5Q2862-61 2860-63Q2856-67 2855.5-69Q2855-71 2853-79Q2852-81 2851-82Q2850-83 2850-85Q2849-86 2849.5-88Q2850-90 2849-91Q2847-93 2847-95Q2847-97 2846-102Q2844-110 2842-115.5Q2840-121 2841-125Q2841-124 2844-123Q2845-122 2847-122Q2847-124 2844.5-125Q2842-126 2841-128Q2841-129 2842.5-137.5Q2844-146 2838-148Q2845-153 2841.5-160.5Q2838-168 2839-179Q2837-177 2834.5-174Q2832-171 2831-167Q2829-162 2825-154Q2821-146 2819-140Q2818-138 2817-138.5Q2816-139 2816-137Q2816-134 2813.5-131.5Q2811-129 2811-125Q2811-124 2810.5-120.5Q2810-117 2809-117Q2808-116 2805.5-115.5Q2803-115 2803-114Q2801-111 2801.5-107.5Q2802-104 2794-105Q2794-102 2798-102Q2796-98 2794-95.5Q2792-93 2787-93Q2784-92 2785.5-89.5Q2787-87 2787-88Q2785-85 2783-83.5Q2781-82 2779-81Q2777-80 2776-78Q2775-76 2776-71Q2774-70 2773.5-72.5Q2773-75 2772.5-77Q2772-79 2771.5-80Q2771-81 2770-77Q2765-78 2769.5-81Q2774-84 2779-82Q2774-87 2775-96Q2771-93 2770-87Q2769-81 2765-77Q2769-73 2769.5-72Q2770-71 2766-66Q2766-64 2767-64Q2768-64 2768-66Q2773-65 2769.5-62Q2766-59 2768-54Q2766-51 2760-51Q2755-49 2759-47Q2763-45 2758-43Q2750-38 2743-33.5Q2736-29 2731-22Q2729-21 2725-22.5Q2721-24 2720-22L2720-20Q2718-20 2713-22Q2708-24 2702-25Q2703-25 2702-23.5Q2701-22 2699-22Q2698-22 2698-23Q2696-25 2696-25Q2692-26 2690-26Q2688-26 2685-28Q2680-31 2675.5-31.5Q2671-32 2670-40Q2663-38 2660-40.5Q2657-43 2652-43Q2651-45 2652-45.5Q2653-46 2652-48Q2650-51 2648.5-50Q2647-49 2647-51Q2646-51 2645.5-56.5Q2645-62 2643-60Q2641-56 2640.5-58Q2640-60 2640-63.5Q2640-67 2640-71.5Q2640-76 2637-77Q2632-71 2635.5-66.5Q2639-62 2635-54Q2633-55 2631-57Q2629-59 2632-60Q2631-62 2628.5-62.5Q2626-63 2626-66Q2626-70 2623-69.5Q2620-69 2618-71Q2615-73 2614.5-77Q2614-81 2608-82Q2609-86 2608-88.5Q2607-91 2605-92.5Q2603-94 2601.5-96Q2600-98 2601-102Q2598-106 2596-111Q2594-116 2589-119Q2589-121 2591-121Q2593-121 2595-122Q2593-125 2593-128Q2593-131 2591-134Q2590-136 2588-137Q2586-138 2585-140Q2583-141 2584.5-143.5Q2586-146 2584-148Q2584-149 2583-149Q2582-149 2581-151Q2580-155 2581-158Q2582-161 2583-165Q2584-166 2583-167.5Q2582-169 2583-170Q2586-172 2586-178.5Q2586-185 2585-192.5Q2584-200 2583-208Q2582-216 2583-222L2584-223Q2586-223 2586-225Q2586-227 2585.5-228Q2585-229 2586-231Q2586-232 2588.5-234Q2591-236 2591-237Q2593-242 2591.5-246.5Q2590-251 2593-256Q2595-258 2596.5-265.5Q2598-273 2598-279Q2600-281 2603.5-282.5Q2607-284 2609-287Q2611-290 2610-295Q2609-300 2617-299Q2616-306 2620-308.5Q2624-311 2622-319Q2626-320 2626.5-316.5Q2627-313 2627-310Q2630-310 2630-313Q2630-316 2630-319Q2627-326 2628-326.5Q2629-327 2632-333Q2634-338 2637-346.5Q2640-355 2647-350Q2647-354 2645.5-355.5Q2644-357 2644-361Q2658-368 2663-387Q2672-385 2675.5-389.5Q2679-394 2682-399Q2684-396 2688.5-396Q2693-396 2692-390Q2698-392 2693.5-395.5Q2689-399 2691-405Q2694-404 2697-407Q2700-410 2702.5-412.5Q2705-415 2707-415.5Q2709-416 2711-410Q2714-410 2713-414.5Q2712-419 2716-419Q2718-423 2720-421Q2722-419 2724-419Q2718-411 2709.5-404.5Q2701-398 2695-390Q2694-388 2694.5-386.5Q2695-385 2695-384Q2694-382 2691.5-380Q2689-378 2687-376Q2685-374 2683.5-371.5Q2682-369 2678-370Q2677-363 2674-358Q2671-353 2668-347Q2665-342 2663-342Q2661-339 2661.5-337Q2662-335 2660-333Q2659-332 2657-330.5Q2655-329 2654-328Q2653-325 2653-323Q2653-321 2652-319Q2651-317 2649-315.5Q2647-314 2647-313Q2646-310 2646-306Q2646-302 2645-299Q2645-297 2644-297.5Q2643-298 2643-296L2643-293Q2643-290 2640-290Q2638-285 2637.5-280Q2637-275 2635-270Q2635-269 2634-268L2633-267Q2631-261 2631.5-252Q2632-243 2628-239Q2627-238 2627.5-233.5Q2628-229 2629-223Q2630-217 2631-211.5Q2632-206 2633-205Q2635-201 2637.5-198Q2640-195 2645-196Q2646-185 2652.5-180Q2659-175 2669-173Q2670-173 2668.5-176Q2667-179 2664.5-182.5Q2662-186 2659.5-188Q2657-190 2656-188Q2653-189 2654.5-189.5Q2656-190 2656-193Q2655-206 2656.5-214.5Q2658-223 2659.5-230Q2661-237 2662.5-245Q2664-253 2664-264Q2657-265 2659-259.5Q2661-254 2659-251Q2658-249 2656-249Q2654-249 2653-248Q2652-247 2653-245Q2654-243 2653-242Q2650-239 2650.5-234.5Q2651-230 2648-225Q2647-223 2646-219.5Q2645-216 2647-211Q2639-213 2639.5-218Q2640-223 2641-231Q2641-244 2647-261Q2649-267 2650.5-273Q2652-279 2654-284Q2659-296 2664.5-305.5Q2670-315 2671-325Q2674-322 2676-322.5Q2678-323 2677-328Q2684-324 2684-319Q2692-322 2688-328Q2684-334 2683-339Q2688-343 2688.5-350.5Q2689-358 2693-364Q2695-366 2695.5-368.5Q2696-371 2698-373Q2700-375 2699-378Q2698-381 2700-384L2709-393Q2711-395 2712-397Q2713-399 2717-399Q2718-406 2722-409Q2726-412 2730-416Q2722-422 2727-426Q2732-430 2740-432Q2742-428 2737-428Q2732-428 2732-425Q2732-422 2734-423Q2736-424 2738-425.5Q2740-427 2742-428Q2744-429 2746-425Q2750-425 2750.5-426Q2751-427 2750.5-428.5Q2750-430 2749.5-431Q2749-432 2751-432Q2752-432 2752.5-431.5Q2753-431 2754-431L2755-430Q2758-430 2760.5-433.5Q2763-437 2768-438Q2779-439 2790-435Q2801-431 2804-422Q2807-423 2805-424.5Q2803-426 2804-430Q2809-431 2811.5-429Q2814-427 2818-425Q2820-423 2823-421Q2826-419 2829-419Q2830-419 2835-415.5Q2840-412 2841-410Q2841-406 2845.5-407Q2850-408 2853-407Q2854-406 2854.5-404.5Q2855-403 2856-402Q2858-400 2860.5-401Q2863-402 2862-399Q2867-404 2867.5-413.5Q2868-423 2868-432Q2876-438 2875-447Q2874-456 2876-464Q2876-465 2878.5-465.5Q2881-466 2881-467Q2882-469 2880.5-472.5Q2879-476 2881-478Q2883-480 2883-484Q2884-486 2885-486Q2886-486 2886-487Q2887-489 2886-492.5Q2885-496 2886-499Q2886-500 2888-501Q2890-502 2890-504Q2892-509 2891-511.5Q2890-514 2893-518Q2895-520 2894-522.5Q2893-525 2895-528Q2896-530 2898-530.5Q2900-531 2901-531Q2903-536 2902-539Q2901-542 2903-546Q2904-548 2904.5-551Q2905-554 2906-554Q2907-556 2908.5-562.5Q2910-569 2911-574Q2912-576 2911-578Q2910-580 2911-580Q2913-582 2916-590Q2919-598 2922-603Q2923-605 2924.5-608Q2926-611 2927-614Q2929-618 2929.5-622Q2930-626 2932-631Q2933-633 2934-632.5Q2935-632 2935-634Q2935-637 2937.5-638.5Q2940-640 2939-645Q2944-644 2941.5-637.5Q2939-631 2937-628Q2937-627 2936.5-623.5Q2936-620 2935-620Q2934-618 2933-614Q2933-612 2932.5-608Q2932-604 2931-597L2929-597L2928-597Q2926-594 2927.5-590.5Q2929-587 2926-583Q2924-582 2925.5-572Q2927-562 2924-557Q2926-559 2927-561.5Q2928-564 2933-563Q2934-565 2932-569Q2931-571 2930-572Q2930-574 2932-574.5Q2934-575 2935-577Q2935-579 2934.5-581Q2934-583 2935-583L2936-583L2937-583Q2939-588 2938-593.5Q2937-599 2939-603Q2939-605 2940.5-604.5Q2942-604 2942-606Q2942-608 2944.5-608.5Q2947-609 2947-611Q2949-614 2946.5-613.5Q2944-613 2944-614Q2944-616 2946-619Q2948-622 2950-625Q2952-633 2955-640Q2956-642 2957.5-643Q2959-644 2959-645Q2961-648 2960.5-650Q2960-652 2962-654Q2963-656 2963-658.5Q2963-661 2965-663Q2965-664 2967.5-664.5Q2970-665 2970-666Q2972-668 2971.5-672.5Q2971-677 2973-680Q2973-682 2974-681.5Q2975-681 2975-683Q2975-687 2978-689Q2981-691 2981-694Q2981-698 2983.5-700Q2986-702 2988-705Q2989-706 2988-708.5Q2987-711 2988-711L2989-711L2991-711Q2990-711 2990-712L2990-714L2990-716L2992-716L2993-716Q2994-717 2993-719.5Q2992-722 2993-722Q2994-723 2995-722L2995-725L2995-728Q3000-733 3003-740Q3006-747 3010-754Q3007-757 3005.5-756Q3004-755 3002.5-752.5Q3001-750 2998.5-747.5Q2996-745 2992-745Q2992-740 2995-740Q2994-735 2990-735.5Q2986-736 2984-734Q2983-733 2985-732Q2986-731 2987-731Q2986-729 2981.5-726Q2977-723 2976-722Q2974-720 2976-717Q2978-714 2974-714Q2972-711 2971.5-713Q2971-715 2974-714Q2969-720 2974.5-722Q2980-724 2982-728Q2983-730 2981.5-732.5Q2980-735 2981-737Q2982-739 2984-739Q2986-739 2986-740Q2988-743 2988.5-745Q2989-747 2992-751Q2995-757 2996-760Q2999-765 3001.5-769Q3004-773 3009-780Q3011-782 3012-782.5Q3013-783 3015-785Q3016-787 3016-789Q3016-791 3017-793Q3018-794 3020-793Q3022-792 3023-793Q3025-795 3025.5-797Q3026-799 3029-799Q3034-801 3039-797Q3044-793 3049-790Q3055-787 3058-780Q3059-778 3061-777Q3063-776 3064-774Q3066-772 3066-769.5Q3066-767 3068-765Q3069-764 3071-764Q3073-764 3074-763Q3075-761 3074-758.5Q3073-756 3074-754Q3075-753 3076-753Q3077-753 3078-751L3078-742Q3078-740 3077.5-736Q3077-732 3076-731Q3073-731 3073-731Q3071-725 3070.5-718.5Q3070-712 3068-705Q3068-704 3066.5-704.5Q3065-705 3065-702Q3065-697 3060-692Q3060-692 3058-690L3057-689Q3055-685 3056-680.5Q3057-676 3055-671Q3055-670 3053-670Q3051-670 3050-668Q3048-665 3049-660.5Q3050-656 3048-651Q3048-650 3045.5-649.5Q3043-649 3042-648Q3040-645 3041-640.5Q3042-636 3040-631Q3040-630 3038.5-630Q3037-630 3037-628Q3037-625 3034.5-623Q3032-621 3032-617L3032-614Q3031-612 3030-611Q3028-605 3027-598Q3026-591 3023-586Q3022-585 3021.5-581.5Q3021-578 3020-577Q3017-575 3018-573Q3019-571 3018-566Q3017-565 3014.5-563.5Q3012-562 3012-560Q3011-558 3012-555.5Q3013-553 3013-551Q3012-550 3011-550.5Q3010-551 3010-548Q3010-543 3007.5-538Q3005-533 3003-525Q3002-523 3002-519.5Q3002-516 3001-513Q3000-511 2998-509.5Q2996-508 2995-507Q2995-505 2995.5-503.5Q2996-502 2995-501Q2995-500 2994-499Q2993-496 2994-492.5Q2995-489 2994-487Q2994-485 2991.5-483.5Q2989-482 2989-481Q2987-475 2988.5-469Q2990-463 2982-458Q2984-444 2980-438Q2978-435 2978.5-432.5Q2979-430 2978-425Q2978-424 2976.5-424Q2975-424 2975-422L2975-419Q2974-416 2974.5-412Q2975-408 2973-402Q2973-401 2971.5-401Q2970-401 2970-399Q2970-396 2970-396Q2969-393 2969-390.5Q2969-388 2968-384Q2967-381 2964.5-373.5Q2962-366 2963-358Q2959-356 2958-350.5Q2957-345 2953-342Q2951-335 2954.5-334Q2958-333 2957-328Q2950-324 2952.5-320.5Q2955-317 2952-313Q2950-311 2949-315Q2948-319 2949-319Q2945-319 2946.5-315.5Q2948-312 2946-310Q2942-306 2946-305Q2948-302 2944.5-302.5Q2941-303 2940-302Q2943-298 2944-295Q2945-293 2944-290.5Q2943-288 2938-290Q2940-281 2941.5-272.5Q2943-264 2935-259Q2937-259 2937-262Q2937-265 2936-268Q2935-271 2933.5-272Q2932-273 2931-270Q2934-269 2933-267.5Q2932-266 2930.5-264Q2929-262 2929.5-260.5Q2930-259 2935-259M2959-622L2959-617Q2952-617 2952.5-610.5Q2953-604 2951-600Q2950-599 2948-599Q2946-599 2945-597Q2943-593 2943-586Q2941-578 2939-571.5Q2937-565 2935-560L2935-557Q2935-555 2934.5-555Q2934-555 2934-554Q2932-550 2933-548Q2934-546 2931-543Q2930-543 2931-539.5Q2932-536 2932-534Q2932-532 2930.5-532Q2929-532 2929-531Q2927-521 2927.5-513Q2928-505 2928-496Q2938-496 2935-499Q2932-502 2933-507L2935-509Q2938-512 2938-513Q2940-519 2939-522Q2938-525 2940-528Q2942-533 2940-534Q2939-535 2940-536Q2941-536 2942-537Q2943-538 2943.5-541.5Q2944-545 2945-546Q2948-550 2946.5-554Q2945-558 2947-563Q2947-564 2949.5-565Q2952-566 2953-566Q2955-568 2950-568Q2945-568 2947-569Q2949-571 2953-574.5Q2957-578 2955-580Q2954-582 2951-581.5Q2948-581 2949-583L2958-583Q2958-588 2955-591Q2952-594 2954-600Q2958-600 2958-602Q2958-604 2957.5-607Q2957-610 2957.5-612.5Q2958-615 2961-617Q2961-620 2960.5-623.5Q2960-627 2959-622M2775-416Q2773-416 2769-422Q2767-423 2766-421Q2765-419 2764-419Q2762-417 2759.5-417Q2757-417 2755-416L2744-405Q2744-401 2742.5-402.5Q2741-404 2739-402Q2737-400 2738-397.5Q2739-395 2737-393Q2735-391 2733-392Q2731-393 2731-390Q2731-385 2727.5-384Q2724-383 2723-381Q2722-378 2725-376Q2728-374 2724-373Q2723-374 2723-375Q2723-376 2721-376Q2720-368 2725.5-369.5Q2731-371 2730-376Q2734-376 2733-381Q2732-386 2737-387Q2738-382 2743-384Q2745-395 2754.5-399Q2764-403 2770-410Q2769-409 2768-411Q2767-413 2770-413Q2770-409 2772-411Q2774-413 2775-416M2743-333Q2743-330 2743.5-323.5Q2744-317 2749-319Q2747-324 2748.5-326Q2750-328 2751-333L2749-333Q2746-333 2748-336Q2748-337 2750-336.5Q2752-336 2751-339Q2750-339 2747.5-340.5Q2745-342 2744-344Q2743-346 2743.5-349Q2744-352 2742-353Q2737-348 2739.5-341.5Q2742-335 2743-333M2759-350L2759-342Q2762-340 2763.5-341.5Q2765-343 2765-345.5Q2765-348 2763.5-349.5Q2762-351 2759-350M2701-316Q2699-317 2703.5-318Q2708-319 2707-316Q2706-313 2705.5-311.5Q2705-310 2707-313Q2710-313 2710.5-316.5Q2711-320 2713-322Q2709-322 2707.5-323.5Q2706-325 2704.5-327Q2703-329 2701.5-331Q2700-333 2697-333Q2699-326 2699-326Q2699-326 2695-322Q2697-321 2698-319Q2699-317 2701-316M2807-313Q2805-310 2801.5-306Q2798-302 2796-302Q2793-302 2793.5-301Q2794-300 2793-299Q2788-295 2785.5-293Q2783-291 2779-287Q2777-285 2775-283Q2773-281 2771-279Q2768-275 2767-272.5Q2766-270 2763-270Q2761-270 2761.5-269.5Q2762-269 2761-267Q2758-263 2756-262Q2754-261 2752-259Q2751-258 2752-256Q2753-254 2752-254Q2751-252 2748.5-249.5Q2746-247 2744-245Q2743-243 2742-239.5Q2741-236 2739-234Q2737-231 2734.5-229Q2732-227 2731-225Q2730-222 2730-218.5Q2730-215 2730-213Q2728-208 2726.5-204.5Q2725-201 2724-199Q2724-198 2724.5-197.5Q2725-197 2725-196Q2725-192 2722.5-191Q2720-190 2720-188Q2720-186 2719-186Q2718-186 2717-185Q2715-179 2716-175.5Q2717-172 2715-170Q2712-166 2712.5-158Q2713-150 2711-142Q2708-137 2704.5-134Q2701-131 2699-125Q2703-124 2702.5-120.5Q2702-117 2701-113.5Q2700-110 2700.5-107.5Q2701-105 2707-105Q2712-104 2709.5-110Q2707-116 2709-119Q2714-124 2720-129Q2726-134 2731-140Q2731-141 2731-143.5Q2731-146 2732-148Q2735-152 2738-155Q2741-158 2743-160Q2744-162 2743.5-163.5Q2743-165 2745-167Q2746-168 2748-168Q2750-168 2751-170Q2753-172 2752.5-174.5Q2752-177 2753-179Q2755-182 2759-185Q2763-188 2765-190Q2766-192 2766-194.5Q2766-197 2767-199Q2769-204 2772-209Q2775-214 2783-216Q2783-225 2787-229.5Q2791-234 2796-237Q2793-241 2796.5-242.5Q2800-244 2802-248Q2801-248 2801-249L2801-251Q2801-253 2804.5-253.5Q2808-254 2807-256L2805-256Q2802-256 2804-259Q2805-260 2808-262.5Q2811-265 2812-267Q2814-269 2813.5-273Q2813-277 2815-279Q2816-280 2817.5-279Q2819-278 2819-279Q2820-281 2819-283Q2818-285 2819-287Q2819-289 2821.5-289.5Q2824-290 2824-293Q2824-295 2825-294.5Q2826-294 2827-296Q2828-298 2828-300.5Q2828-303 2829-305Q2834-310 2840.5-314Q2847-318 2845-328Q2831-327 2824.5-320Q2818-313 2807-313M2886-276Q2887-271 2886.5-266.5Q2886-262 2892-264Q2890-273 2886-276M2898-310Q2894-305 2894-298.5Q2894-292 2893-284Q2893-281 2892-281Q2891-281 2894-279Q2896-277 2893.5-276Q2891-275 2891-276Q2892-268 2893.5-267.5Q2895-267 2892-264Q2890-262 2892.5-261Q2895-260 2895-259Q2895-258 2893-258Q2891-258 2892-256Q2892-255 2894.5-254Q2897-253 2898-251Q2899-249 2899-247Q2899-245 2902-245Q2899-253 2903-254.5Q2907-256 2909-261Q2907-260 2905.5-264Q2904-268 2906-270Q2910-275 2906.5-276Q2903-277 2908-282Q2910-284 2907-289Q2904-294 2905-296Q2905-297 2907.5-296.5Q2910-296 2910-299Q2905-301 2904-307.5Q2903-314 2907-319Q2901-319 2900-315.5Q2899-312 2898-310M2816-237Q2814-236 2814-238Q2814-240 2815-242Q2816-244 2816-244.5Q2816-245 2814-242Q2813-238 2812-239.5Q2811-241 2810-244Q2809-247 2807.5-248.5Q2806-250 2805-245Q2809-243 2805-239Q2808-240 2809.5-239Q2811-238 2812.5-236.5Q2814-235 2815-234.5Q2816-234 2816-237M2821-245Q2819-237 2822.5-235Q2826-233 2831-231Q2833-236 2836-238.5Q2839-241 2839-248Q2834-250 2831.5-248.5Q2829-247 2827.5-245.5Q2826-244 2825-243Q2824-242 2821-245M2866-205Q2864-208 2862-216Q2860-224 2863-222Q2865-222 2865.5-219.5Q2866-217 2868-216Q2870-223 2869-224.5Q2868-226 2867-234Q2862-236 2863-231.5Q2864-227 2863-225Q2862-224 2860-224.5Q2858-225 2857-225Q2855-223 2855.5-219.5Q2856-216 2854-216Q2858-214 2858.5-207.5Q2859-201 2863-199Q2863-197 2863.5-194.5Q2864-192 2864-190Q2869-189 2872.5-185.5Q2876-182 2879-179Q2879-182 2882-182Q2881-179 2879.5-177Q2878-175 2880-170Q2883-166 2885-169Q2887-172 2888-167Q2888-165 2889.5-165Q2891-165 2891-163Q2889-163 2888.5-164Q2888-165 2886-165Q2887-160 2886-159.5Q2885-159 2883.5-160Q2882-161 2881-161.5Q2880-162 2880-160Q2889-157 2884-151Q2888-153 2887.5-150Q2887-147 2889-145Q2891-143 2894-142.5Q2897-142 2898-140Q2899-133 2899-126.5Q2899-120 2900-114Q2900-111 2900.5-107Q2901-103 2903-108Q2903-117 2902-122Q2907-121 2905-127Q2903-133 2905-137Q2904-139 2905.5-140Q2907-141 2904-142Q2905-137 2900.5-140.5Q2896-144 2898-148Q2902-145 2902.5-147Q2903-149 2901.5-152.5Q2900-156 2897.5-160Q2895-164 2894-165Q2901-165 2900-170Q2907-170 2907-176Q2901-177 2905-183Q2907-186 2910-188Q2911-192 2910-192Q2909-192 2907.5-191.5Q2906-191 2905-190.5Q2904-190 2905-193Q2902-197 2905-197Q2908-197 2909-199Q2910-200 2909.5-201.5Q2909-203 2909-205Q2910-210 2911.5-216.5Q2913-223 2910-228Q2914-227 2915-229.5Q2916-232 2912-234Q2912-230 2908-228Q2910-233 2907-232.5Q2904-232 2902-234Q2902-235 2902.5-236.5Q2903-238 2902-239Q2898-241 2894-238.5Q2890-236 2887-239Q2891-231 2886.5-223.5Q2882-216 2886-213Q2886-214 2887-214.5Q2888-215 2888-213Q2886-207 2887-198Q2888-189 2893-185Q2896-188 2895-190.5Q2894-193 2892.5-195Q2891-197 2890-199.5Q2889-202 2892-205Q2896-204 2895-201Q2894-198 2892-196Q2904-197 2901.5-207.5Q2899-218 2894-225Q2902-220 2901-223Q2900-226 2903-228Q2908-226 2908-219Q2902-223 2902-215Q2902-207 2907-208Q2907-213 2908-213Q2908-208 2905.5-204Q2903-200 2901-196.5Q2899-193 2898-188Q2897-183 2899-176Q2895-177 2894.5-176Q2894-175 2894-172.5Q2894-170 2894-168.5Q2894-167 2891-167Q2889-171 2891-173.5Q2893-176 2894.5-178Q2896-180 2896.5-181.5Q2897-183 2893-185Q2891-182 2889.5-184Q2888-186 2886-189Q2884-192 2882-193Q2880-194 2879-188Q2881-187 2883-187Q2885-187 2885-185Q2880-183 2877-185.5Q2874-188 2871.5-191.5Q2869-195 2868-199Q2867-203 2866-205M2887-145Q2885-139 2890-138.5Q2895-138 2893-131Q2894-126 2888.5-122Q2883-118 2888-117Q2888-118 2889-118.5Q2890-119 2891-117Q2891-115 2890-114Q2889-113 2888-111Q2891-111 2893-110Q2895-109 2897-108Q2895-119 2895.5-123.5Q2896-128 2895-140Q2892-141 2890.5-142.5Q2889-144 2887-145M2809-219Q2808-218 2810.5-215.5Q2813-213 2812-213Q2815-215 2819-216Q2823-217 2819-222Q2818-223 2818-220Q2818-218 2817-216Q2816-215 2813-217Q2810-219 2809-219M2864-140Q2864-147 2869-157Q2864-158 2862.5-149Q2861-140 2864-140M2852-145Q2851-135 2854-135Q2857-135 2855-145Q2859-146 2856.5-146.5Q2854-147 2852-145M2876-122Q2884-122 2881.5-125.5Q2879-129 2882-137Q2878-139 2879-143Q2880-147 2875-148Q2873-144 2874-141.5Q2875-139 2876.5-136Q2878-133 2878.5-129.5Q2879-126 2876-122M2647-131Q2645-130 2643.5-129Q2642-128 2640-131Q2640-123 2648-125Q2649-131 2649.5-133.5Q2650-136 2645-140Q2645-135 2647-131M2862-134Q2864-134 2865-132Q2866-130 2870-131Q2869-133 2869-136Q2869-139 2867-140Q2867-137 2864.5-136.5Q2862-136 2862-134M2908-111Q2906-115 2910-117.5Q2914-120 2907-122Q2907-120 2905-115.5Q2903-111 2908-111M2648-114Q2646-119 2641-119Q2641-116 2641-112.5Q2641-109 2642-105Q2644-104 2644-106Q2644-108 2643.5-110.5Q2643-113 2643-115Q2643-117 2646-117Q2646-115 2646.5-112.5Q2647-110 2648-114M2630-102Q2629-105 2634-108.5Q2639-112 2632-114Q2633-111 2629-107Q2625-103 2630-102M2869-91Q2867-96 2871-96.5Q2875-97 2875-102Q2870-104 2867.5-99.5Q2865-95 2863-102Q2864-102 2864.5-103Q2865-104 2863-105Q2858-100 2862-97Q2866-94 2869-91M2889-102L2889-85Q2891-86 2892-84Q2893-82 2893.5-79.5Q2894-77 2894-76Q2894-75 2896-79Q2897-82 2894.5-85Q2892-88 2895-88Q2899-88 2898-91Q2897-94 2898-96Q2898-97 2900.5-97Q2903-97 2901-99Q2896-103 2895-100.5Q2894-98 2889-102M2743-69Q2744-67 2744-72Q2744-77 2742-77Q2746-78 2747-76.5Q2748-75 2748-72.5Q2748-70 2748-68Q2748-66 2751-66Q2751-71 2753-71Q2751-74 2751-77Q2751-80 2752-83.5Q2753-87 2752.5-90Q2752-93 2749-96Q2748-92 2747-93.5Q2746-95 2745-97Q2744-99 2743.5-100Q2743-101 2743-96Q2743-94 2741-93Q2743-95 2738.5-94Q2734-93 2735-93L2735-95Q2735-99 2732-96Q2730-94 2730-89Q2730-84 2731-79L2733-79Q2733-77 2734-75Q2736-71 2736-71Q2736-70 2734-70.5Q2732-71 2734-69Q2735-67 2738-66Q2741-65 2743-63Q2742-68 2740-70Q2738-72 2743-69M2705-85Q2703-81 2707.5-77Q2712-73 2705-71Q2705-73 2705-75.5Q2705-78 2702-79Q2697-72 2700.5-60.5Q2704-49 2713-48Q2716-51 2714.5-55Q2713-59 2715-63Q2715-64 2717.5-63Q2720-62 2720-63Q2722-66 2721-71.5Q2720-77 2722-79Q2720-80 2718.5-80.5Q2717-81 2720-79Q2720-77 2719.5-74Q2719-71 2717-71Q2717-75 2711-71Q2709-78 2711-82Q2713-86 2713-91Q2713-93 2712.5-94.5Q2712-96 2710-93Q2710-90 2710-86.5Q2710-83 2705-85M2758-88Q2759-91 2761-91Q2761-97 2755-96Q2756-94 2756-91Q2756-88 2758-88M2643-79Q2644-85 2639.5-90Q2635-95 2633-91Q2636-91 2636-89Q2636-87 2636-84Q2636-81 2637-79Q2638-77 2643-79M2757-66Q2760-65 2760-67Q2760-69 2759.5-71Q2759-73 2757.5-74Q2756-75 2756-71Q2757-68 2755-64.5Q2753-61 2757-66M2945-63Q2951-61 2946.5-56.5Q2942-52 2939-51Q2939-54 2934-57Q2931-55 2932-50Q2933-45 2929-45Q2928-47 2926.5-46.5Q2925-46 2926-43Q2926-39 2928-41Q2930-43 2932-43Q2933-43 2934-40.5Q2935-38 2937-40Q2938-41 2937.5-43.5Q2937-46 2940-45Q2940-39 2945-38Q2950-37 2952-34Q2950-41 2955-40Q2960-39 2963-40Q2965-45 2964-46Q2963-47 2968-51Q2966-52 2964-52Q2962-52 2962-54Q2960-61 2963-61.5Q2966-62 2968-66Q2964-68 2954-68.5Q2944-69 2945-63M2903-54Q2905-68 2894-66Q2892-53 2903-54M2928-51Q2929-52 2929-54.5Q2929-57 2928-58.5Q2927-60 2925.5-60.5Q2924-61 2922-57Q2924-58 2925.5-54Q2927-50 2928-51M2961-131Q2963-131 2963.5-128Q2964-125 2965-122.5Q2966-120 2967-119Q2968-118 2970-122Q2966-122 2966.5-124Q2967-126 2968-128.5Q2969-131 2969.5-132.5Q2970-134 2967-134Q2967-129 2964-131Q2964-133 2962.5-133Q2961-133 2961-131M2990-188Q2987-187 2988.5-180Q2990-173 2993-179Q2994-181 2993-184.5Q2992-188 2990-188M2960-683Q2957-685 2958-688Q2959-691 2960.5-692.5Q2962-694 2962.5-692Q2963-690 2960-683M2950-668Q2953-668 2952.5-667Q2952-666 2950-666Q2950-656 2945-654Q2946-649 2944-649.5Q2942-650 2942-654Q2946-656 2947-661Q2948-666 2950-668M3012-128Q3013-132 3013.5-129.5Q3014-127 3014-123Q3014-119 3012-115.5Q3010-112 3007-114Q3008-116 3010-120Q3012-124 3006-125Q3007-127 3008-127Q3009-127 3009-125Q3012-124 3012-128"/>
</svg>
