<svg xmlns="http://www.w3.org/2000/svg"
  viewBox="-66 -822.41 2611 1237.82" role="img" aria-label="Minjun">
  <path fill="#f4d84f" d="M554 4L564 8L554 19L554 21Q555 23 553.5 26.5Q552 30 548.5 34Q545 38 541.5 40.5Q538 43 535 43L527 43Q524 49 520 53L523 58L521 61L502 64Q501 65 499.5 66.5Q498 68 496 68Q494 68 491.5 62Q489 56 486.5 48Q484 40 482 32.5Q480 25 480 22Q480 19 481 13.5Q482 8 483 1.5Q484-5 484-10.5Q484-16 481-18Q479-24 479-28Q479-37 487.5-56Q496-75 506-95Q516-115 524.5-131.5Q533-148 533-154L533-156Q551-182 559-208Q561-210 563.5-217.5Q566-225 567.5-233.5Q569-242 570.5-250Q572-258 572-262Q574-262 574-258Q574-256 572.5-249.5Q571-243 573-242Q575-245 574.5-247.5Q574-250 575-253Q577-267 583.5-280Q590-293 590-306L593-313L601-317Q602-322 605.5-329Q609-336 609-341Q609-343 608-345Q607-347 606-349Q606-357 609.5-367Q613-377 617-384L619-382L612-364Q620-376 623.5-387.5Q627-399 632-411Q637-413 637-422Q637-431 639-436Q639-441 635-445Q633-446 631-445Q629-444 627-443Q627-445 628.5-448.5Q630-452 630-454L632-454L638-447Q639-445 639-444Q639-441 640-441Q642-441 642-443.5Q642-446 642-447L637-463L634-462Q632-460 626-453.5Q620-447 619-447Q619-444 608.5-425Q598-406 584.5-382.5Q571-359 559-338Q547-317 544-311L541-310Q531-301 523-286.5Q515-272 508-257Q501-242 493-228.5Q485-215 475-206Q470-195 463-182Q456-169 448.5-155.5Q441-142 435-129Q429-116 426-107L423-106Q403-79 386-48.5Q369-18 351 11Q346 19 344.5 29.5Q343 40 336 50L320 60L313 60Q307 53 304 43Q302 41 301.5 38Q301 35 301 33Q301 25 303.5 17Q306 9 306 1Q306-10 299.5-21Q293-32 293-44Q293-66 296-88Q299-110 299-133Q299-144 297-159.5Q295-175 297-186Q300-201 304-216.5Q308-232 308-248Q308-256 305-264.5Q302-273 302-282Q302-304 309.5-326.5Q317-349 320-372L307-371L306-371Q306-387 307.5-402.5Q309-418 309-435L312-440L313-451Q313-454 313.5-457.5Q314-461 312-464L307-464Q306-466 304-469Q302-472 302-474Q302-476 305-478Q308-480 304-480L300-477Q295-477 294.5-478Q294-479 293-484Q291-482 288-479Q285-476 284-473L287-466L294-472L297-468L296-460L290-458L276-463Q275-460 274-456.5Q273-453 273-450L274-440L275-438L271-436Q267-433 267-427L271-428L281-437L285-434Q283-428 282-422.5Q281-417 277-412Q276-398 269-383Q264-381 261.5-375Q259-369 257-364L255-346Q250-342 246-332Q240-326 237-319.5Q234-313 232.5-307Q231-301 229-295.5Q227-290 223-286L217-285L213-286L209-273Q207-271 205.5-263.5Q204-256 202-246Q200-236 198-227.5Q196-219 193-216L192-207Q185-207 185-199L187-196L188-202L192-206L197-201Q195-196 193-188L192-188L191-193Q189-190 186-180.5Q183-171 184-168Q180-162 177-155.5Q174-149 172-142L169-140Q167-140 167-135Q166-129 162.5-124.5Q159-120 155.5-115.5Q152-111 149-105.5Q146-100 146-93L144-89Q140-87 139.5-84Q139-81 137-78Q133-68 129.5-59Q126-50 124-40Q122-31 114.5-20.5Q107-10 107-6L108-4Q109 3 100.5 15.5Q92 28 88 35L68 40Q62 45 50 55Q38 65 33 65Q26 65 16 53.5Q6 42 6 33Q6 24 10 16Q14 8 14-3Q14-7 14.5-10.5Q15-14 13-18L11-21Q18-37 21-59Q26-68 31-77Q36-86 41-95L41-97Q43-100 47-107.5Q51-115 54.5-123Q58-131 61-138.5Q64-146 64-149Q71-157 72-165L70-166Q67-166 66-161Q65-156 60-156Q58-156 57.5-158.5Q57-161 57-163Q57-169 59-171Q60-176 64-185.5Q68-195 72-205Q76-215 78.5-223Q81-231 81-234Q83-239 84-247Q85-255 92-255L96-255Q98-257 98.5-263.5Q99-270 100-273L111-282L111-287Q108-292 113-295L117-304Q117-305 117-309Q117-313 119-313Q120-313 121.5-310.5Q123-308 123-310L122-314Q124-318 123.5-321.5Q123-325 123-329Q127-329 128-330Q129-335 130.5-340.5Q132-346 132-351L131-359Q132-369 136.5-378.5Q141-388 149-394L149-397Q154-392 161-393L158-386L165-396L168-401L169-403L170-404L166-402Q163-397 159-397Q154-397 152.5-401.5Q151-406 150-410Q152-417 153.5-423.5Q155-430 159-436Q161-437 166.5-445.5Q172-454 172-456L177-459L182-459L178-462L176-468L182-471L186-476Q187-479 187.5-482.5Q188-486 190-489Q189-490 189-493L194-496L207-493Q209-496 213-503Q217-510 221.5-518.5Q226-527 229-534Q232-541 232-544Q234-550 239.5-558.5Q245-567 244-573Q248-580 254-585Q260-590 266-595Q264-601 266-604Q268-607 271-608.5Q274-610 277-610.5Q280-611 280-613Q280-615 279-616.5Q278-618 280-620L290-622L295-626L298-639L297-642L301-662L303-663L306-659L306-648L309-643L308-652L314-668L316-672Q318-672 319.5-660Q321-648 321-645L324-638Q327-645 334-649Q337-656 338.5-667Q340-678 341.5-688.5Q343-699 344.5-708Q346-717 347-719Q350-717 351.5-713.5Q353-710 357-708L360-702Q360-700 360-694.5Q360-689 361-683Q362-677 363-672.5Q364-668 366-668Q366-668 367-670L367-673Q368-675 375.5-679.5Q383-684 386-687L388-682L394-679Q400-679 400-671Q400-669 399.5-665Q399-661 396-661Q392-661 391-665.5Q390-670 390-672L391-674L383-672L382-650Q382-641 382-632.5Q382-624 384-615Q382-610 382.5-598.5Q383-587 387-582L391-580L387-580Q385-580 386.5-578Q388-576 389-575Q392-572 392-567L392-564L388-559Q390-554 392-544L388-536L383-536L380-538L380-537Q380-535 382-533Q388-529 389-525L389-516L392-514Q392-512 390-511.5Q388-511 386-510Q392-506 394-503Q396-499 396-497Q396-490 394-483.5Q392-477 390-470Q391-462 393.5-450.5Q396-439 396-431Q396-416 392-402.5Q388-389 388-373Q388-365 390.5-357.5Q393-350 389-343L389-333Q387-331 387-328Q387-325 386-323L381-321L385-299Q384-294 381.5-290.5Q379-287 379-282Q379-278 380.5-273.5Q382-269 376-265Q376-260 375-255Q374-250 372-245L369-242L369-224Q369-212 373-201Q381-209 389-218.5Q397-228 400-239L410-245L413-250Q409-259 415-261Q422-272 429.5-283Q437-294 444-305L438-307Q443-316 447.5-325Q452-334 454-345L482-383L482-386Q483-391 489-397L497-400Q499-409 503.5-414Q508-419 512-427Q510-429 512-431Q514-433 516-433L523-441Q533-455 549-476.5Q565-498 571-514L570-518Q572-522 572.5-526Q573-530 574-534Q583-545 591-556.5Q599-568 609-579Q613-591 622-607Q631-623 642.5-639Q654-655 666-668.5Q678-682 689-688Q689-694 693-704Q698-706 703.5-707Q709-708 714-709L720-708L720-704L722-706L738-713Q739-714 739.5-715.5Q740-717 742-717Q743-717 743-714Q743-713 742.5-711Q742-709 744-709Q745-709 748-712L750-722L751-726L753-722L753-717L760-717L768-724L775-725Q775-724 776.5-720Q778-716 779-716Q781-716 781-718Q781-720 782-722Q788-727 795-728L793-719L785-716L790-715Q792-717 794-716Q796-715 796-713L801-713Q804-713 804-709L810-709Q811-708 815-704Q819-700 823-695Q827-690 830.5-685.5Q834-681 835-680Q836-677 837.5-672Q839-667 839-664L836-661Q833-651 827-634Q821-617 814-609Q818-594 805-583Q803-577 803.5-570Q804-563 802-557Q803-552 803-547Q803-542 803-537Q800-538 797-535L792-529L787-527Q789-528 790-526.5Q791-525 791-524Q788-519 783.5-515Q779-511 776-506Q782-511 782.5-504Q783-497 784-495L783-491L779-488L774-488Q771-483 768-483Q765-483 765-487L763-491Q758-488 750.5-477Q743-466 736-452Q729-438 724-424.5Q719-411 719-405L713-395L712-387Q710-383 705-383L694-363Q699-358 699-353L696-346Q693-346 695-344Q697-342 697-340Q695-330 690-325Q688-320 685-316Q682-312 679-307Q678-302 678-292L675-289Q672-289 667.5-280Q663-271 662-267Q660-267 659.5-265Q659-263 659-262Q659-251 662-239Q659-236 655.5-227.5Q652-219 648.5-209.5Q645-200 643-191Q641-182 641-179Q639-175 638.5-171Q638-167 638-163Q637-157 635.5-151.5Q634-146 628-141Q624-135 624-130L625-115L627-111Q622-109 615-105Q608-101 608-94Q608-88 607.5-85.5Q607-83 606-81Q605-79 603-77Q601-75 598-69Q599-64 595-53Q591-42 589-37L588-36L585-38L577-29L575-19Q577-15 580-15Q575-9 567.5-4Q560 1 554 4M229-420Q231-426 240.5-447Q250-468 261-491Q272-514 282-534.5Q292-555 296-561L297-567L294-569L289-566L287-557Q287-560 283-562Q282-561 279-556Q276-551 276-549Q276-547 277.5-546.5Q279-546 278-544L273-543L273-541Q267-534 262-524.5Q257-515 252-507Q252-505 251.5-503Q251-501 251-499L247-492Q247-485 242-485L242-484Q237-473 230.5-457Q224-441 216-433Q214-422 205-413Q196-404 194-393L190-389Q182-369 171-347Q160-325 149-305L135-279L136-278Q142-278 144.5-284Q147-290 152-295Q153-302 162-319Q171-336 182.5-355.5Q194-375 204.5-393Q215-411 221-419Q223-420 229-420M583-559L584-563Q583-565 581-566Q579-567 579-569L582-570L588-573L590-579L589-584Q591-585 595-585Q601-596 611-608.5Q621-621 629-631Q628-628 621.5-616.5Q615-605 607.5-592.5Q600-580 593.5-569.5Q587-559 585-559L583-559M333-501L335-500Q337-513 341.5-524.5Q346-536 346-550Q346-558 343-566Q339-556 339-550L339-536L335-526L337-521L337-518Q333-511 333-501M76-171Q79-171 83.5-177.5Q88-184 92-192.5Q96-201 99-209Q102-217 103-221Q94-207 88-196.5Q82-186 76-171M306-716L309-720L320-723Q324-723 324-720Q324-719 322-717Q320-712 317-709Q313-707 310-707Q307-707 307-708L309-711L306-716M194-466L183-437Q188-437 190.5-444.5Q193-452 194-455Q196-457 196.5-461Q197-465 198-469L196-475L192-474L194-472L194-466M514-62Q515-62 519-71.5Q523-81 523-83L520-87Q513-78 513-67L513-64Q513-62 514-62M777-470L770-469L763-469L763-477L772-477L777-476L777-470M304-682L301-685Q301-691 299-688.5Q297-686 295-691Q297-693 299.5-696Q302-699 305-699L306-699L307-698L304-686L304-682M494-32L501-36L496-46Q497-43 494-40Q491-37 491-34L494-32M329-457Q332-457 331.5-467.5Q331-478 331-480Q328-471 328-462Q328-461 327.5-459Q327-457 329-457M329-439L328-446Q327-445 327-443Q326-441 326-432Q326-427 329-427L330-427L329-439M229-433L234-448Q235-447 235-444Q235-442 233-438L233-433L230-430L229-433M176-177L172-176Q171-175 167.5-169.5Q164-164 164-162Q166-162 170.5-169Q175-176 176-177M115-237L115-242Q113-242 110-233.5Q107-225 107-224L115-237M391-639L392-644L395-639L396-633L394-630L391-639M305-338L302-338Q302-342 306-348L306-345Q306-340 305-338M300-703Q299-703 299-705Q299-707 300-708L305-710Q305-703 300-703M536-189Q537-187 537-182.5Q537-178 535-178Q533-178 534.5-183Q536-188 536-189M528-166L521-148L524-162L528-166M338-570L339-567L342-570L341-575L339-575L338-570M397-553L399-543L395-545L397-553M293-672L292-675L296-678L297-675L293-672M302-493L300-494L296-489L297-489Q302-489 302-493M395-612Q398-612 398-608L397-604Q396-606 396-608Q395-610 395-612M392-246L393-251L398-255Q397-253 395.5-250.5Q394-248 392-246M292-668Q291-668 289-670L286-672Q288-672 290-671Q292-670 294-669Q294-668 292-668M323-397L321-400Q321-399 321-395.5Q321-392 322-392Q323-392 323-394Q323-396 323-397M624-423L629-420Q628-419 626-419Q624-419 624-420L624-423M389-489L387-490Q384-487 384-487Q384-486 386-486L389-489M366-655L370-666L367-663L366-655M203-224Q202-224 202-226L202-227L205-230L205-228Q205-226 203-224M304-499L306-502L305-505Q303-503 303-501Q303-499 304-499M287-455L290-453L288-451L285-453L287-455M299-669L302-671L304-669L301-667L299-669M292-584L290-582L293-580L295-582L292-584M339-698L340-695Q340-693 338-693Q337-693 337-696L339-698M274-615Q274-614 271-614Q268-614 267-614L270-616L272-616Q273-616 274-615M398-619L394-620L393-625L398-619M560-232L558-235L561-235Q562-234 562-231L560-232M395-652Q395-648 393-648Q392-648 392-650L394-653Q395-653 395-652M427-287L426-289Q426-290 428-292Q429-291 429-289L427-287M396-525L398-523L396-521L394-523L396-525M224-408L223-410L220-408L220-406L224-408M760-449L763-451L764-449L761-447L760-449M377-300L375-298L377-296L379-298L377-300M376-682L374-685L378-690Q376-686 376-682M292-486L294-489L293-491L291-489L292-486M535 41Q536 40 538 38Q540 36 540 35Q539 35 537 37Q535 39 535 41M158-370L157-372Q155-370 155-369Q155-368 156-368L158-370M640-645L639-647L641-649L642-647L640-645M622-409L624-411L625-409L623-407L622-409M200-209L198-207L197-209L199-211L200-209M766-494L767-498Q767-498 766-499Q766-499 765-497L766-494M152-385L153-388Q150-388 150-384Q151-384 152-385M205-517L212-521Q208-517 206-517L205-517M200-478L200-482Q200-482 199-483L199-481L200-478M534-170L534-166Q533-166 533-167L533-168L534-170M521-148L520-145Q520-146 520.5-146.5Q521-147 521-148"/>
  <path fill="#f4d84f" d="M853-222L854-212L852-207L844-202L842-210L844-207L848-216L844-221Q842-220 837.5-210.5Q833-201 827.5-190.5Q822-180 818-170.5Q814-161 814-160L816-154L821-149L812-147L809-151L807-148L806-141L798-135L793-137L792-135Q793-126 791.5-115.5Q790-105 789-96L791-94L798-130Q803-132 807.5-132Q812-132 817-134L811-96L816-87Q816-86 815.5-85.5Q815-85 815-84L813-79Q810-80 806.5-80Q803-80 800-80L798-76L800-71Q797-74 795-72L794-67L790-62L789-51Q789-46 790.5-42Q792-38 785-35Q779-36 778-46Q777-56 775-61Q771-52 768-33Q765-14 761.5 5.5Q758 25 752 40.5Q746 56 737 58L726 56L725 45Q725 39 727 31L724 27L716 34Q715 36 713.5 39.5Q712 43 710 43Q707 43 704 36Q701 29 693 29L687 30L685 16Q690-4 690-19.5Q690-35 698-55Q700-60 703-65Q706-70 705-76Q712-93 716-114Q720-135 725-153Q727-159 727-160Q727-166 734.5-181.5Q742-197 751.5-215.5Q761-234 769-252Q777-270 779-280Q776-284 784.5-302Q793-320 805.5-341.5Q818-363 830-382.5Q842-402 846-409Q848-404 848.5-399Q849-394 848-389L850-388L856-391Q858-395 858-396L858-397L860-397Q864-397 869-399L870-403Q875-409 883-411Q883-412 880-412L884-415L886-413Q883-411 880-407.5Q877-404 876-400Q876-394 875-391L867-384Q868-376 859-363Q850-350 850-338Q850-333 852-333Q854-333 857.5-339Q861-345 865-353Q869-361 872-368Q875-375 877-377L882-380L898-401Q900-397 900-394Q900-391 897-387.5Q894-384 892-381Q891-378 888-368Q885-358 881.5-347.5Q878-337 874.5-328.5Q871-320 870-320L843-261Q844-259 842.5-255Q841-251 840-249L842-241Q844-241 843-242.5Q842-244 850-242L851-249Q847-253 852-264Q857-275 859-281L870-282Q874-282 874-287L874-294L869-285L866-283L864-285Q864-290 867-296Q870-302 872-306Q874-307 879-317Q884-327 889-338Q894-349 898.5-359.5Q903-370 903-373L909-380L916-383L915-379L918-364Q920-355 913-346.5Q906-338 904-330L899-323L897-323Q901-321 907-315Q903-312 899-305.5Q895-299 891-291.5Q887-284 884-276Q881-268 880-264L885-265Q886-265 886-262L885-257L878-250Q875-249 867-247Q859-245 859-240Q859-238 863-236Q864-232 859.5-229Q855-226 852-226Q850-226 850-229Q850-232 850-233L847-238L840-237L838-235L838-229Q836-225 832.5-221.5Q829-218 824-216L822-208L823-205L808-165L827-199Q830-205 833.5-216Q837-227 846-227Q848-227 853-222M971-525Q967-520 962.5-507Q958-494 953-491L948-489Q946-484 943-481Q940-478 938-473Q935-471 931.5-469.5Q928-468 926-466Q924-466 921.5-466.5Q919-467 921-464L920-464Q919-464 913.5-466.5Q908-469 901-472Q894-475 888-477.5Q882-480 881-481Q879-486 874.5-495Q870-504 870-509L870-516Q876-528 880-545Q884-562 895-570Q903-574 912-576.5Q921-579 930-579Q941-579 957-572L959-568L952-568L937-566Q942-564 948-563Q954-562 959-561L962-560L960-558L959-549Q963-550 966.5-551Q970-552 974-551L974-549Q971-543 971-537.5Q971-532 971-525M772-27L779-30Q782-33 783-33Q786-33 787-30Q788-27 788-25Q788-23 786-19L784-19L782-13Q786-11 782-2Q778 7 773 7L771 7Q771 5 770 1.5Q769-2 769-4L769-10Q776-18 770-25L772-27M994-495L1007-510L1007-508Q1007-503 1004.5-496.5Q1002-490 996-490L994-488L983-488L983-489L991-495L994-495M785 6Q787 6 787 9Q787 12 787 13Q787 21 781 21L779 21Q780 19 781 12.5Q782 6 785 6M976-482L971-478L977-494L979-491L976-482M826-161L830-158Q830-155 826-155L822-158L826-161M856-208L858-205L856-202L854-205L856-208M795-94L799-88L800-92L795-94M784-66L786-69L785-72Q783-70 783-68Q783-66 784-66M789-91L786-93L784-91L787-89L789-91M797-139L799-141L796-143L794-141L797-139M917-395L917-397Q921-397 921-394L921-393Q919-393 917-395M920-388Q916-388 916-391L918-391L921-389Q921-388 920-388M885-271L890-273L889-271L885-269L885-271M729-148L730-151Q730-151 729-152Q729-152 728-150"/>
  <path fill="#f4d84f" d="M1067-411L1075-410Q1075-408 1077-409.5Q1079-411 1080-412Q1081-413 1082.5-415Q1084-417 1086-417Q1088-417 1088-413L1088-411Q1089-409 1093-401Q1097-393 1099-393L1100-386Q1099-383 1097.5-374.5Q1096-366 1094-364Q1093-356 1091.5-347.5Q1090-339 1090-331Q1090-328 1090-328L1091-329L1098-333L1102-331Q1102-328 1099.5-320.5Q1097-313 1096-310Q1093-307 1093-303Q1093-300 1095-294Q1097-292 1095-290Q1093-288 1092-287Q1091-285 1090-282.5Q1089-280 1089-278Q1089-273 1090-271Q1097-276 1104-280.5Q1111-285 1115-293L1120-295L1126-301Q1127-306 1131-316Q1136-318 1139.5-320.5Q1143-323 1145-328Q1157-337 1164.5-352Q1172-367 1186-375L1186-371L1191-373Q1191-371 1193-373.5Q1195-376 1197-376L1199-374L1204-377Q1205-379 1210-379.5Q1215-380 1217-380Q1236-380 1250.5-388Q1265-396 1281-396Q1298-396 1306-389.5Q1314-383 1324-370Q1326-370 1328-369Q1330-368 1330-366Q1330-365 1328-365Q1326-365 1325-365Q1327-359 1332-356Q1330-347 1330-339Q1330-331 1330-323Q1330-318 1325-304Q1320-290 1312.5-271.5Q1305-253 1296-232Q1287-211 1278.5-193.5Q1270-176 1263-163Q1256-150 1253-147Q1251-133 1244.5-121Q1238-109 1235-96L1241-99L1257-130L1260-132L1287-178L1289-179Q1291-179 1291-174Q1291-169 1288-165Q1285-161 1284-156L1283-155Q1283-153 1280.5-143Q1278-133 1274.5-122Q1271-111 1268-101.5Q1265-92 1263-91L1261-92Q1253-63 1241.5-39Q1230-15 1217 11L1211 15Q1209 20 1205.5 23.5Q1202 27 1196 27L1193 27L1199 25L1201 23L1203 18L1200 15Q1194 15 1188 19L1181 16L1180 11L1180 16Q1177 19 1177 23Q1177 24 1178 25Q1178 26 1178 26L1171 27L1161 26L1160 25Q1159 25 1159 24Q1159 22 1164 18.5Q1169 15 1171 9L1168 4Q1167 6 1163 11Q1159 16 1158 16Q1157 16 1157 15Q1157 10 1161.5 4.5Q1166-1 1169-4Q1171-8 1171-10L1171-16Q1167-9 1159.5 2.5Q1152 14 1142 14L1139 13L1132 10L1126 3L1126 1Q1126-18 1133-38Q1140-58 1145-76Q1143-71 1138.5-64Q1134-57 1132-54L1138-81Q1133-85 1137-89Q1139-91 1141-92Q1143-93 1145-95L1145-102L1150-107L1156-109Q1153-113 1145-119L1149-118L1157-119L1157-131L1160-133Q1160-137 1158-139.5Q1156-142 1155-146L1157-150Q1160-150 1159.5-148Q1159-146 1160-146L1163-149Q1163-154 1164-163Q1165-172 1171-177L1171-180Q1171-181 1170-183.5Q1169-186 1171-186Q1173-188 1175-198.5Q1177-209 1178-212Q1177-218 1183-222L1186-226Q1189-232 1189-240L1191-241Q1192-239 1194-241Q1196-243 1197.5-247Q1199-251 1200-254.5Q1201-258 1201-259Q1203-266 1209.5-271Q1216-276 1216-283Q1216-285 1213-288L1209-290L1206-284Q1206-282 1197-279.5Q1188-277 1186-275L1183-276L1180-264Q1160-241 1134-224Q1108-207 1088-185L1085-184Q1080-179 1072-172Q1064-165 1062-160Q1074-168 1083.5-178Q1093-188 1107-193Q1104-190 1097.5-184Q1091-178 1084-172Q1077-166 1070.5-160.5Q1064-155 1061-154L1057-154L1053-147Q1045-142 1039-132.5Q1033-123 1023-121L1022-115L1024-110L1019-100L1007-93Q1005-87 998-76Q991-65 985-60L983-58Q984-45 975-34Q976-32 976-27Q974-22 970-12.5Q966-3 961 0L960-3Q960-4 960-7.5Q960-11 958-11Q956-11 955.5-9Q955-7 954-5L940 9Q928 14 926 14Q924 14 912 14Q907 14 903 13.5Q899 13 894 15L889 15L888 9L876 0Q879-19 885.5-36.5Q892-54 894-73Q896-78 900-81Q903-97 909.5-110Q916-123 916-140Q915-138 913-133Q911-128 909-128Q907-128 907-131.5Q907-135 907-136Q910-144 913-151Q916-158 918-166Q921-169 923.5-174.5Q926-180 928.5-186Q931-192 933-196.5Q935-201 937-202Q939-207 941-212.5Q943-218 944-223Q944-224 947-234Q950-244 953.5-255Q957-266 960.5-276.5Q964-287 964-290Q964-295 964.5-295.5Q965-296 967-301Q967-310 975.5-325Q984-340 996-355.5Q1008-371 1020-384Q1032-397 1038-403Q1036-398 1034.5-394Q1033-390 1031-385Q1035-384 1039-385Q1043-386 1046-388L1055-408L1059-412L1067-411L1066-409L1068-407L1069-409L1067-411M1033-111L1027-110Q1031-116 1045-129.5Q1059-143 1075.5-157.5Q1092-172 1107-183Q1122-194 1127-194L1128-194Q1128-191 1124.5-189.5Q1121-188 1119-186Q1102-168 1078-146.5Q1054-125 1033-111M1287-387L1290-390L1279-391Q1276-391 1272.5-390.5Q1269-390 1266-390Q1264-387 1261.5-383Q1259-379 1255-379Q1252-379 1252-381L1247-382Q1247-381 1248.5-378.5Q1250-376 1251-376L1255-376Q1263-380 1271-382Q1279-384 1287-387M1095-208L1105-222L1098-221Q1094-213 1087-208.5Q1080-204 1075-196L1072-196L1069-190Q1077-190 1083.5-198Q1090-206 1095-208M1208-368L1208-365Q1209-365 1215.5-368.5Q1222-372 1222-373L1216-373L1208-368M980-46L980-47Q977-47 974-39Q971-31 969-28Q971-31 975.5-37.5Q980-44 980-46M1068-184L1068-188L1062-186L1060-178L1068-184M1092-320L1089-322Q1086-319 1086-314L1086-311L1092-320M1154-295L1154-297L1151-301L1149-299Q1149-298 1149-295.5Q1149-293 1151-293Q1152-293 1154-295M1086-270L1081-268Q1082-265 1083-262Q1084-259 1083-256Q1084-259 1084-262.5Q1084-266 1086-269L1086-270M1182-329L1181-331L1178-329Q1178-324 1181-323Q1181-325 1181.5-326Q1182-327 1182-329M1025-363L1030-371L1025-373Q1027-366 1025-363M1190-333L1192-337Q1192-340 1190-340L1189-335L1190-333M1097-339L1100-338L1099-335L1096-336L1097-339M1238-364L1239-363Q1241-363 1241.5-365.5Q1242-368 1243-369L1238-364M1171-251L1173-249Q1173-246 1172-246Q1170-246 1170-248L1171-251M1186-325L1189-327L1186-328L1183-326L1186-325M1057-173L1055-175L1053-173L1054-171L1057-173M1126-50L1128-48L1125-46L1124-48L1126-50M1231-364L1235-366L1234-368L1231-366L1231-364M1083-310L1081-307L1083-306L1085-309L1083-310M912-4L914-6L913-9L911-6L912-4M1173-3L1176-7Q1176-8 1177-8Q1177-8 1178-9L1176-8Q1173-5 1173-3M962-14L962-19L961-17L962-14M966-14L966-19L965-17L966-14M1217-53L1218-55Q1217-54 1217-53"/>
  <path fill="#f4d84f" d="M1467-375L1466-371L1470-378L1473-378Q1473-370 1466-360.5Q1459-351 1459-339L1460-331Q1457-321 1458-312Q1456-310 1452.5-297Q1449-284 1444-270Q1439-253 1432-233L1432-231L1433-226L1438-224Q1441-230 1443.5-238.5Q1446-247 1445-254L1447-259L1448-260L1447-266L1449-268Q1457-291 1466.5-312Q1476-333 1487-354L1492-355L1492-366L1498-367Q1498-368 1498.5-368.5Q1499-369 1499-370Q1497-377 1501-382L1506-382L1509-386Q1516-387 1520-388.5Q1524-390 1530-392Q1532-391 1541.5-388.5Q1551-386 1551-382L1550-379Q1551-366 1546-360Q1541-354 1541-345Q1541-330 1530-319Q1528-314 1519.5-296Q1511-278 1499-254.5Q1487-231 1473.5-204.5Q1460-178 1448.5-155Q1437-132 1429.5-116Q1422-100 1422-97Q1423-108 1424-120Q1425-132 1424-143Q1423-141 1420.5-135.5Q1418-130 1415-124Q1412-118 1410-112.5Q1408-107 1408-106L1408-99L1411-101Q1417-93 1418-88Q1407-67 1402-40.5Q1397-14 1390 9L1382 18Q1376 45 1367 71.5Q1358 98 1348.5 124Q1339 150 1330.5 176.5Q1322 203 1318 229L1316 229Q1312 235 1305 245Q1298 255 1290 265Q1282 275 1273 282Q1264 289 1256 289Q1245 289 1238.5 293Q1232 297 1223 303Q1214 309 1203 309Q1202 309 1198 309.5Q1194 310 1194 312Q1192 317 1186.5 319Q1181 321 1176 321Q1162 321 1147.5 316Q1133 311 1121 305Q1127 305 1132.5 305.5Q1138 306 1144 307Q1145 307 1150 307Q1155 307 1155 305Q1151 303 1142.5 297Q1134 291 1125.5 283.5Q1117 276 1110 269.5Q1103 263 1103 259L1097 253L1086 251L1083 253L1085 259Q1089 263 1098 265Q1092 269 1091 272L1097 277L1095 280Q1085 272 1081 262.5Q1077 253 1067 245Q1070 245 1072 243L1070 238Q1069 237 1065 231.5Q1061 226 1061 224Q1061 222 1063.5 217Q1066 212 1068 213L1070 208Q1069 201 1076 195L1074 191L1080 189Q1081 188 1081 186Q1081 184 1081 183Q1081 179 1080 175Q1079 171 1078 167L1082 165Q1083 165 1086 166Q1089 167 1089 165Q1089 163 1085.5 162Q1082 161 1082 159Q1082 152 1088 148.5Q1094 145 1094 137L1094 122Q1099 117 1100.5 115Q1102 113 1103 107L1107 102Q1113 100 1118.5 96.5Q1124 93 1129 91L1133 94Q1135 98 1135 102Q1135 108 1131 113.5Q1127 119 1127 124Q1127 126 1129 126L1132 125L1138 124L1142 121L1147 120Q1148 109 1146.5 105Q1145 101 1156 93L1157 94L1159 99Q1159 110 1154.5 118Q1150 126 1147 135Q1148 145 1145.5 154Q1143 163 1143 172Q1143 185 1149.5 186.5Q1156 188 1156 192Q1156 203 1157.5 214.5Q1159 226 1154 236L1149 237L1148 242Q1148 253 1161.5 260.5Q1175 268 1185 268Q1189 268 1195.5 263Q1202 258 1205 255Q1208 244 1214.5 229Q1221 214 1229 206Q1234 187 1244 168Q1254 149 1265 130Q1276 111 1285 91.5Q1294 72 1297 51Q1309 37 1316.5 18Q1324-1 1330-21.5Q1336-42 1342.5-62.5Q1349-83 1360-99L1362-109L1365-112L1366-117L1367-118Q1369-122 1372.5-130Q1376-138 1380-147Q1384-156 1388-164Q1392-172 1396-175Q1400-189 1405-204Q1410-219 1415-233L1419-236L1423-233Q1429-239 1429-247L1428-253L1422-259L1421-257L1426-248L1423-242Q1421-242 1420-240.5Q1419-239 1417-239L1417-247L1415-248L1414-245Q1412-237 1410-233Q1402-230 1396-222Q1391-200 1382.5-178.5Q1374-157 1366-136Q1367-140 1365.5-150Q1364-160 1363-164Q1364-170 1368-183.5Q1372-197 1376.5-211.5Q1381-226 1384.5-238.5Q1388-251 1387-254Q1388-256 1390.5-263Q1393-270 1395.5-278Q1398-286 1400-293Q1402-300 1402-302L1410-319Q1414-317 1414-321.5Q1414-326 1414-328L1420-330Q1420-325 1420-319Q1420-313 1422-308L1427-306Q1429-306 1429.5-303Q1430-300 1430-299Q1430-291 1429-284Q1428-277 1428-269Q1430-273 1432-278Q1434-283 1434-288L1433-295L1435-297Q1442-310 1441-322L1452-336L1456-349Q1457-351 1455-356L1467-378L1470-378L1467-375M1561-462L1568-465L1567-459Q1563-457 1559-453.5Q1555-450 1553-446L1547-458Q1537-448 1526-448Q1522-448 1518-450Q1516-453 1512-458.5Q1508-464 1508-466Q1508-468 1510-468Q1511-468 1513-466L1525-462Q1530-464 1532-467Q1534-470 1537-474Q1530-482 1521-484L1513-491Q1513-493 1511.5-495.5Q1510-498 1508-498L1519-473L1519-471L1504-486Q1502-493 1499.5-500Q1497-507 1494-514Q1494-519 1494-530Q1494-541 1501-542Q1505-548 1505-553L1517-570Q1518-571 1522-571L1527-575L1533-576Q1536-576 1536-570Q1540-568 1543-568L1549-568L1553-574Q1557-577 1562-579.5Q1567-582 1572-582L1574-582L1577-578Q1580-577 1583.5-576Q1587-575 1590-575L1604-559Q1601-554 1598.5-549Q1596-544 1594-539L1595-537L1600-536L1601-534Q1600-532 1596.5-528.5Q1593-525 1594-523Q1592-518 1586.5-507.5Q1581-497 1576-494L1577-487Q1571-482 1563-476Q1555-470 1555-461Q1555-459 1556-459Q1558-459 1561-462M1621-453L1618-446Q1610-453 1608-461Q1608-463 1611-463Q1612-463 1616-462Q1620-461 1620-463Q1620-463 1618-465.5Q1616-468 1615.5-471Q1615-474 1618-477.5Q1621-481 1630-484Q1628-483 1627.5-481Q1627-479 1626-477Q1628-475 1631-472Q1634-469 1634-465L1633-461L1627-459L1621-453M1086 230L1081 217Q1079 219 1079 221.5Q1079 224 1079 226Q1079 228 1079.5 234Q1080 240 1083 240L1084 240L1086 230M1377 90L1377 98L1374 98L1369 96Q1370 94 1371.5 91.5Q1373 89 1375 89L1377 90M1191 295L1192 297Q1196 296 1200.5 295Q1205 294 1208 291L1203 291Q1201 291 1197 293L1197 294L1191 295M1433-174L1432-179Q1431-176 1428.5-174Q1426-172 1426-169Q1426-168 1428-168Q1430-168 1431.5-170Q1433-172 1433-174M1098 237L1098 227L1091 223L1091 224Q1095 226 1095.5 232Q1096 238 1097 242L1098 237M1189 313L1190 310L1167 313L1189 313M1066 213L1066 193L1068 194Q1067 199 1067 203.5Q1067 208 1067 213L1066 213M1427-159L1429-164L1426-166L1425-164L1425-159L1423-155L1427-159M1423-293L1427-294L1427-295L1423-298L1421-294L1421-291Q1421-291 1422-292L1423-293M1376 79L1379 86Q1374 84 1374 82Q1374 81 1376 79M1419-216L1421-213L1424-216L1422-219L1419-216M1608-443L1608-449Q1610-447 1610-445L1612-441L1608-443M1365 112L1367 110Q1371 110 1371 111Q1371 113 1369 113L1365 112M1391 25L1394 28L1394 31Q1393 31 1391.5 29Q1390 27 1390 26L1391 25M1346 180L1347 183Q1346 182 1344 181.5Q1342 181 1342 179L1342 178Q1344 178 1346 180M1132 135L1130 133L1127 135L1129 137L1132 135M1289 21L1291 23L1289 26L1287 24L1289 21M1435-189L1434-192L1432-189L1433-186L1435-189M1430-315L1433-314L1431-311L1429-312L1430-315M1278 42L1280 40L1282 42L1280 44L1278 42M1106 285Q1107 285 1109 287L1107 288L1105 286Q1105 285 1106 285M1302-14L1301-12Q1299-14 1299-15Q1299-16 1300-16L1302-14M1079 191Q1078 192 1078 195L1080 195Q1080 192 1079 191M1430-357L1432-359L1433-357L1431-355L1430-357M1425-146L1428-147L1424-148Q1424-148 1423-147L1425-146M1569-486L1562-487Q1562-488 1564.5-487Q1567-486 1569-486M1076 207Q1078 202 1077 199Q1077 201 1076.5 203Q1076 205 1076 207M1069 194L1068 194Q1068 190 1069 188L1069 194M1424-265L1423-266L1421-265L1422-263L1424-265M1278 52L1277 55Q1277 54 1276.5 53.5Q1276 53 1276 52L1276 51Q1277 51 1278 52M1423-336L1424-338L1424-333Q1423-333 1423-336M1471-397L1476-401L1474-398L1471-397M1090 257Q1090 257 1094 257L1092 258L1091 258Q1090 258 1090 257M1472-380L1470-378L1472-380M1075 211L1076 210L1075 210"/>
  <path fill="#f4d84f" d="M2011-398L2015-385Q2011-375 2010-365.5Q2009-356 2007.5-347Q2006-338 2003.5-328.5Q2001-319 1995-309Q1995-304 1992.5-295Q1990-286 1986-276.5Q1982-267 1978.5-257.5Q1975-248 1973-244Q1970-239 1969-239Q1965-223 1955-203.5Q1945-184 1945-170Q1945-169 1945-167Q1945-165 1947-165Q1949-165 1952.5-172Q1956-179 1957-181Q1959-185 1965.5-197Q1972-209 1979-222Q1986-235 1993-246Q2000-257 2003-260L2004-263L2010-265Q2009-260 2004-248Q1999-236 1996-232L1994-216L1992-215Q1982-198 1975-171Q1968-144 1960-124Q1962-119 1958-117Q1956-111 1955-105.5Q1954-100 1955-94Q1948-85 1945-76Q1943-74 1943-64Q1943-54 1941-39.5Q1939-25 1932.5-7.5Q1926 10 1911 27L1903 31Q1895 31 1894 37L1893 37Q1889 37 1883 30.5Q1877 24 1879 20Q1877 14 1875 11Q1884-9 1887.5-31.5Q1891-54 1902-73L1904-88Q1899-83 1896-77Q1893-71 1888-66Q1888-68 1889-76.5Q1890-85 1886-85Q1882-85 1878-83Q1872-78 1869.5-70.5Q1867-63 1865-55L1868-46Q1866-40 1862-28Q1858-16 1855-11L1858-6L1851 3Q1853 10 1854.5 16Q1856 22 1855 29L1853 29Q1849 29 1846.5 26.5Q1844 24 1842 22Q1839 18 1837.5 13.5Q1836 9 1834 4L1830-6L1829-7L1828-10L1829-9L1830-9L1832-7L1832-10Q1830-14 1828-17Q1824-22 1823-29L1820-41Q1822-45 1817-45Q1808-45 1802-36.5Q1796-28 1788-27L1787-23Q1780-15 1770-11.5Q1760-8 1752 0Q1750 1 1747 2Q1744 3 1741 3L1741 5L1734 9Q1730 17 1721.5 21.5Q1713 26 1705 28Q1701 32 1698 32Q1693 32 1687.5 33.5Q1682 35 1676 36Q1672 38 1669 40.5Q1666 43 1661 43Q1643 43 1635.5 40.5Q1628 38 1612 30Q1609 27 1607 28Q1599 22 1590.5 17Q1582 12 1572 9Q1570 7 1567.5 4Q1565 1 1564-2L1562 1L1562 4Q1562 6 1561 6Q1560 6 1558.5 2.5Q1557-1 1555.5-5.5Q1554-10 1552.5-13.5Q1551-17 1550-17L1549-16L1550-11L1552-4Q1550-4 1548-3Q1546-2 1547 0L1549 15L1545 11L1540 12Q1542 15 1544 21L1528 4Q1525-4 1523.5-15.5Q1522-27 1522-36Q1522-40 1523-49.5Q1524-59 1526.5-69Q1529-79 1532-86.5Q1535-94 1538-94Q1539-99 1542-107Q1545-115 1549-123.5Q1553-132 1557-139.5Q1561-147 1565-150L1590-204Q1590-206 1591-208.5Q1592-211 1591-213Q1594-215 1599-230.5Q1604-246 1609.5-265Q1615-284 1621-302Q1627-320 1631-328Q1637-334 1645-334Q1645-344 1645-349.5Q1645-355 1650-364L1655-367L1661-367Q1666-376 1673-390.5Q1680-405 1690-410L1692-414L1692-426Q1697-429 1702-433.5Q1707-438 1707-445L1729-467L1736-466L1739-469L1740-469L1741-460L1740-453Q1743-457 1745-459Q1747-461 1752-459L1754-459Q1754-460 1755-460Q1765-460 1766.5-446.5Q1768-433 1768-426Q1768-420 1767-410.5Q1766-401 1762-396L1764-408Q1762-405 1758.5-400.5Q1755-396 1751.5-391Q1748-386 1746-381.5Q1744-377 1745-376Q1747-368 1743.5-355.5Q1740-343 1740-335Q1740-333 1741.5-333Q1743-333 1744-332Q1742-327 1737.5-321Q1733-315 1733-310Q1733-299 1731-293Q1729-287 1726-283Q1723-279 1719.5-274.5Q1716-270 1713-261Q1705-265 1708-255Q1700-243 1699.5-224Q1699-205 1692-191L1690-190Q1687-182 1684-178Q1681-174 1679.5-170Q1678-166 1677-161Q1676-156 1676-147Q1674-149 1672.5-151.5Q1671-154 1670-156Q1668-145 1664.5-133.5Q1661-122 1650-118L1654-105Q1651-93 1645-82.5Q1639-72 1633-61.5Q1627-51 1622-40.5Q1617-30 1616-18Q1625-22 1635.5-22.5Q1646-23 1654-30Q1671-44 1689-53.5Q1707-63 1724-76Q1730-90 1742.5-99.5Q1755-109 1762-123Q1766-125 1774.5-130Q1783-135 1792-141Q1801-147 1807.5-153Q1814-159 1814-164Q1820-168 1826-177Q1832-186 1838-196Q1844-206 1848.5-216Q1853-226 1855-233L1866-240Q1866-243 1870-254Q1874-265 1879-278Q1884-291 1888.5-301.5Q1893-312 1896-314L1918-358L1926-365L1926-371Q1931-374 1933.5-376.5Q1936-379 1936-386L1940-391Q1943-389 1943-382.5Q1943-376 1945-376L1954-391Q1959-402 1965-411Q1971-420 1976-430L1977-435Q1981-433 1984-432.5Q1987-432 1989-437L1996-442Q1999-440 2002.5-436.5Q2006-433 2006-428L2006-427L2014-402L2011-398M1622-207L1623-205L1625-208Q1631-219 1636-231Q1641-243 1646-254Q1652-267 1659.5-286.5Q1667-306 1676-327Q1685-348 1693.5-366.5Q1702-385 1709-395L1710-401Q1696-383 1683.5-358.5Q1671-334 1660-307.5Q1649-281 1639-255Q1629-229 1622-207M1563-107Q1563-116 1570.5-127Q1578-138 1578-152Q1576-148 1571-139Q1566-130 1561-120Q1556-110 1552-101Q1548-92 1548-89L1548-84L1553-79Q1556-86 1559.5-92.5Q1563-99 1563-107M2045-327L2055-319L2050-318L2050-317L2054-311L2052-310L2046-310Q2046-305 2045-302.5Q2044-300 2042-295Q2037-292 2031-292L2029-290L2027-290Q2032-301 2036-311.5Q2040-322 2045-332L2047-333L2053-333L2052-332L2051-332L2045-327M1609-181Q1613-181 1616.5-188.5Q1620-196 1621-199L1620-206L1616-203Q1614-198 1612-192Q1610-186 1609-181M1590-180Q1590-181 1592-183L1594-185L1590-186Q1589-186 1588-180.5Q1587-175 1585-173Q1588-170 1588-170Q1590-170 1590-174.5Q1590-179 1590-180M1547-55L1546-51Q1548-51 1550-61Q1552-71 1550-74Q1548-69 1548-64.5Q1548-60 1547-55M1940-431Q1940-434 1942.5-435.5Q1945-437 1947-439Q1947-437 1945.5-433Q1944-429 1942-429Q1940-429 1940-431M2033-289L2038-290L2038-288Q2038-285 2035-284Q2032-283 2030-283L2033-289M1563-5L1565-10L1563-15Q1561-15 1561-13Q1561-11 1561-10L1563-5M2040-307L2042-311Q2042-315 2040-315Q2038-315 2038-313L2040-307M1935-146L1934-150L1930-144L1931-141L1935-146M1937-420L1932-413Q1932-415 1933.5-419Q1935-423 1937-423L1937-420M1597-192Q1595-194 1593-194Q1591-194 1591-193Q1591-190 1594-190Q1595-190 1597-192M2037-299L2038-305L2037-306L2034-297L2037-299M2032-280L2033-278L2032-275L2028-273L2032-280M1822-53L1823-59L1818-51L1822-53M1713-409L1715-407L1718-411L1717-412L1713-409M2053-334L2052-335L2051-338L2051-339Q2054-339 2054-336Q2054-336 2053-334M2022-280L2024-283Q2025-283 2025-282Q2025-278 2023-278Q2022-278 2022-280M1582-158L1585-159Q1583-161 1581-161L1580-160L1582-158M1892-97L1894-97Q1895-98 1895-101Q1892-98 1892-98L1892-97M2053-329L2054-327L2052-325Q2051-325 2051-326Q2051-327 2053-329M1935-157Q1939-157 1939-161Q1935-161 1935-157M1929-133L1930-135L1929-137L1927-135L1929-133M1946-390L1945-392Q1945-394 1946-395L1947-393L1946-390M2027-266L2029-266L2027-264L2024-265Q2025-265 2025.5-265.5Q2026-266 2027-266M1712-266L1712-270Q1712-270 1711-271L1711-269"/>
  <path fill="#f4d84f" d="M2208-411L2216-410Q2216-408 2218-409.5Q2220-411 2221-412Q2222-413 2223.5-415Q2225-417 2227-417Q2229-417 2229-413L2229-411Q2230-409 2234-401Q2238-393 2240-393L2241-386Q2240-383 2238.5-374.5Q2237-366 2235-364Q2234-356 2232.5-347.5Q2231-339 2231-331Q2231-328 2231-328L2232-329L2239-333L2243-331Q2243-328 2240.5-320.5Q2238-313 2237-310Q2234-307 2234-303Q2234-300 2236-294Q2238-292 2236-290Q2234-288 2233-287Q2232-285 2231-282.5Q2230-280 2230-278Q2230-273 2231-271Q2238-276 2245-280.5Q2252-285 2256-293L2261-295L2267-301Q2268-306 2272-316Q2277-318 2280.5-320.5Q2284-323 2286-328Q2298-337 2305.5-352Q2313-367 2327-375L2327-371L2332-373Q2332-371 2334-373.5Q2336-376 2338-376L2340-374L2345-377Q2346-379 2351-379.5Q2356-380 2358-380Q2377-380 2391.5-388Q2406-396 2422-396Q2439-396 2447-389.5Q2455-383 2465-370Q2467-370 2469-369Q2471-368 2471-366Q2471-365 2469-365Q2467-365 2466-365Q2468-359 2473-356Q2471-347 2471-339Q2471-331 2471-323Q2471-318 2466-304Q2461-290 2453.5-271.5Q2446-253 2437-232Q2428-211 2419.5-193.5Q2411-176 2404-163Q2397-150 2394-147Q2392-133 2385.5-121Q2379-109 2376-96L2382-99L2398-130L2401-132L2428-178L2430-179Q2432-179 2432-174Q2432-169 2429-165Q2426-161 2425-156L2424-155Q2424-153 2421.5-143Q2419-133 2415.5-122Q2412-111 2409-101.5Q2406-92 2404-91L2402-92Q2394-63 2382.5-39Q2371-15 2358 11L2352 15Q2350 20 2346.5 23.5Q2343 27 2337 27L2334 27L2340 25L2342 23L2344 18L2341 15Q2335 15 2329 19L2322 16L2321 11L2321 16Q2318 19 2318 23Q2318 24 2319 25Q2319 26 2319 26L2312 27L2302 26L2301 25Q2300 25 2300 24Q2300 22 2305 18.5Q2310 15 2312 9L2309 4Q2308 6 2304 11Q2300 16 2299 16Q2298 16 2298 15Q2298 10 2302.5 4.5Q2307-1 2310-4Q2312-8 2312-10L2312-16Q2308-9 2300.5 2.5Q2293 14 2283 14L2280 13L2273 10L2267 3L2267 1Q2267-18 2274-38Q2281-58 2286-76Q2284-71 2279.5-64Q2275-57 2273-54L2279-81Q2274-85 2278-89Q2280-91 2282-92Q2284-93 2286-95L2286-102L2291-107L2297-109Q2294-113 2286-119L2290-118L2298-119L2298-131L2301-133Q2301-137 2299-139.5Q2297-142 2296-146L2298-150Q2301-150 2300.5-148Q2300-146 2301-146L2304-149Q2304-154 2305-163Q2306-172 2312-177L2312-180Q2312-181 2311-183.5Q2310-186 2312-186Q2314-188 2316-198.5Q2318-209 2319-212Q2318-218 2324-222L2327-226Q2330-232 2330-240L2332-241Q2333-239 2335-241Q2337-243 2338.5-247Q2340-251 2341-254.5Q2342-258 2342-259Q2344-266 2350.5-271Q2357-276 2357-283Q2357-285 2354-288L2350-290L2347-284Q2347-282 2338-279.5Q2329-277 2327-275L2324-276L2321-264Q2301-241 2275-224Q2249-207 2229-185L2226-184Q2221-179 2213-172Q2205-165 2203-160Q2215-168 2224.5-178Q2234-188 2248-193Q2245-190 2238.5-184Q2232-178 2225-172Q2218-166 2211.5-160.5Q2205-155 2202-154L2198-154L2194-147Q2186-142 2180-132.5Q2174-123 2164-121L2163-115L2165-110L2160-100L2148-93Q2146-87 2139-76Q2132-65 2126-60L2124-58Q2125-45 2116-34Q2117-32 2117-27Q2115-22 2111-12.5Q2107-3 2102 0L2101-3Q2101-4 2101-7.5Q2101-11 2099-11Q2097-11 2096.5-9Q2096-7 2095-5L2081 9Q2069 14 2067 14Q2065 14 2053 14Q2048 14 2044 13.5Q2040 13 2035 15L2030 15L2029 9L2017 0Q2020-19 2026.5-36.5Q2033-54 2035-73Q2037-78 2041-81Q2044-97 2050.5-110Q2057-123 2057-140Q2056-138 2054-133Q2052-128 2050-128Q2048-128 2048-131.5Q2048-135 2048-136Q2051-144 2054-151Q2057-158 2059-166Q2062-169 2064.5-174.5Q2067-180 2069.5-186Q2072-192 2074-196.5Q2076-201 2078-202Q2080-207 2082-212.5Q2084-218 2085-223Q2085-224 2088-234Q2091-244 2094.5-255Q2098-266 2101.5-276.5Q2105-287 2105-290Q2105-295 2105.5-295.5Q2106-296 2108-301Q2108-310 2116.5-325Q2125-340 2137-355.5Q2149-371 2161-384Q2173-397 2179-403Q2177-398 2175.5-394Q2174-390 2172-385Q2176-384 2180-385Q2184-386 2187-388L2196-408L2200-412L2208-411L2207-409L2209-407L2210-409L2208-411M2174-111L2168-110Q2172-116 2186-129.5Q2200-143 2216.5-157.5Q2233-172 2248-183Q2263-194 2268-194L2269-194Q2269-191 2265.5-189.5Q2262-188 2260-186Q2243-168 2219-146.5Q2195-125 2174-111M2428-387L2431-390L2420-391Q2417-391 2413.5-390.5Q2410-390 2407-390Q2405-387 2402.5-383Q2400-379 2396-379Q2393-379 2393-381L2388-382Q2388-381 2389.5-378.5Q2391-376 2392-376L2396-376Q2404-380 2412-382Q2420-384 2428-387M2236-208L2246-222L2239-221Q2235-213 2228-208.5Q2221-204 2216-196L2213-196L2210-190Q2218-190 2224.5-198Q2231-206 2236-208M2349-368L2349-365Q2350-365 2356.5-368.5Q2363-372 2363-373L2357-373L2349-368M2121-46L2121-47Q2118-47 2115-39Q2112-31 2110-28Q2112-31 2116.5-37.5Q2121-44 2121-46M2209-184L2209-188L2203-186L2201-178L2209-184M2233-320L2230-322Q2227-319 2227-314L2227-311L2233-320M2295-295L2295-297L2292-301L2290-299Q2290-298 2290-295.5Q2290-293 2292-293Q2293-293 2295-295M2227-270L2222-268Q2223-265 2224-262Q2225-259 2224-256Q2225-259 2225-262.5Q2225-266 2227-269L2227-270M2323-329L2322-331L2319-329Q2319-324 2322-323Q2322-325 2322.5-326Q2323-327 2323-329M2166-363L2171-371L2166-373Q2168-366 2166-363M2331-333L2333-337Q2333-340 2331-340L2330-335L2331-333M2238-339L2241-338L2240-335L2237-336L2238-339M2379-364L2380-363Q2382-363 2382.5-365.5Q2383-368 2384-369L2379-364M2312-251L2314-249Q2314-246 2313-246Q2311-246 2311-248L2312-251M2327-325L2330-327L2327-328L2324-326L2327-325M2198-173L2196-175L2194-173L2195-171L2198-173M2267-50L2269-48L2266-46L2265-48L2267-50M2372-364L2376-366L2375-368L2372-366L2372-364M2224-310L2222-307L2224-306L2226-309L2224-310M2053-4L2055-6L2054-9L2052-6L2053-4M2314-3L2317-7Q2317-8 2318-8Q2318-8 2319-9L2317-8Q2314-5 2314-3M2103-14L2103-19L2102-17L2103-14M2107-14L2107-19L2106-17L2107-14M2358-53L2359-55Q2358-54 2358-53"/>
</svg>
